<mxfile host="www.draw.io" modified="2019-12-25T07:32:29.649Z" agent="Mozilla/5.0 (Windows NT 6.1; Win64; x64) AppleWebKit/537.36 (KHTML, like Gecko) Chrome/77.0.3865.90 Safari/537.36" etag="Ri33a12oF8NBsPAj8wYJ" version="12.4.3" type="github" pages="1">
  <diagram id="kMrMVJHEo5we-7xyz0Q-" name="第 1 页">
    <mxGraphModel dx="854" dy="478" grid="1" gridSize="10" guides="1" tooltips="1" connect="1" arrows="1" fold="1" page="1" pageScale="1" pageWidth="1169" pageHeight="827" background="none" math="0" shadow="0">
      <root>
        <mxCell id="0"/>
        <mxCell id="1" parent="0"/>
        <mxCell id="j9SPHKjD_w-5UFpXXz6L-6" style="edgeStyle=orthogonalEdgeStyle;rounded=0;orthogonalLoop=1;jettySize=auto;html=1;" edge="1" parent="1" source="j9SPHKjD_w-5UFpXXz6L-1" target="j9SPHKjD_w-5UFpXXz6L-3">
          <mxGeometry relative="1" as="geometry"/>
        </mxCell>
        <mxCell id="j9SPHKjD_w-5UFpXXz6L-1" value="" style="shape=image;verticalLabelPosition=bottom;labelBackgroundColor=#ffffff;verticalAlign=top;aspect=fixed;imageAspect=0;image=data:image/png,iVBORw0KGgoAAAANSUhEUgAAACsAAAArCAYAAADhXXHAAAAQEklEQVRYCaWZ63Mcx3XFf93z2Ad2F8ACizdJgHpSFEWaivyILVfKrlTlQypf8v+k9Bcln13l2JXYsS3qRVGkKVEkQYEEQDz3vbM7M92duj0LgpZf5WSKyx3M9O6cPn3vuef2Kuec468cZ0OUUn6kdTk2TwmCAKUjyC2jbp9qvQFhAAac/KcDnHKgFBYI8Kd/5Wl//nb4524JQHmdAZRxL6ZlLEEQMuh1SYZDDvf36Xc6zM/O02jOs9BcpDQ3B85icksQhVjr0EoJ7v/z8WfByjdaa9FavwDsnPXUOGMZ9Qbc/uQWz3a2OT0+QDmDMSn1+ixXr3+HqzduUq0v+BlaF6BQyL//z/EXwb78xWdMy3syHHHv00+49T+/plGPuXxphUa9xNHRc5588w2//q99xpMeP3j/HwlKs2S5QengxaRf/t6/5fwvgpUQ+MMwcJ7tbrvNF7c/RVvDd65f48qVS4Sx5ehgnqiUceuj23zyya+5/NobrG9dLViVeP1bkP2JsVpS4Y8Ph/MpUdyVERKvEnfWOY6Pjzk+PuXaO1d5+63XqZY0yowpRbB5YYX1tUWGww7bTx4yGQ0II43W9qWglyeePdd/+x9D+BNXQscY5cpgVfF55XA6wZBhVIgxZRSaUCm0CrDG0OmnmGiWZnOWku1Bt0MwSZgZDZnNLY0o5MQq9vePsSicGmJVgnYNcPEUaAG2YFvO9ZR6uaJx03WY3vHQQ5EYJbN0Ck+mlusGlMEqRW4soZp+WCmvTLV6hTAM2H70iLXKgKW6I+ufko0nZInh9LiNcxWazRYq0ExyQxBGHoBS1nMqzxRVO48NETd5+Pkk5Mwr0DR+fMzKor8cT8qJAgT+c1GgiZTCZAbICOOUCytlFhqOL+/eZl5fIHpjnnHynNE45cFOh6fPD7j89g9569rbXrYMMc5EGAWBkmfJ06zn5+XnFit/fqXAdf53+G2gxcQCvxCBUz5GrcnRNiOMRtj0hEHnK9LhQ9pHX/PgwSElPU9uTxgkKR9/cUBmW2y9+grL6ysoYoyJyTNFFHuInj9hsYBRMHkeoufg/LWX6PdgzwfKmQzWaAICUXBj0dYRRDnto0fcu/NLnu98wVz5hB/9YIX5ekR1xpBMNOWgQn1uBm2rHB7t8fjRA1Y3rhCGpYIDLWB90HmoRRScr+o5zOLM4zyDBIQe3PmoKW6NlQLgIA6kSGZkSZtPP/w5v/3Nf3CxZXlrs8HW1ppPPJsrRuNZiBs0FhL224adw0f84mcpV9/p8+577xMHUZE4kh4eQJHQZ/wKLwX4KQT/dsZ6ATCUTH9xyDV5Fd/mY8s5RT4Z8fzpQ7YffU6tkvHu9XVWGz2q8S4mU6i4SRQ2Kc+1aLYUr5iQ+4+O+fDjbX7zix7Li7NcuryFZg5DWMTsVAqlyEgZDoJvMyYgzsAWCLUEuwCa4ivATj8nE7G5ZCkcH+2jVcqF9SYrixGzlQTyE5zrYU0PzQiXnlKiy3x1xOuXZvj+9XVie8KdW7+ge7hNIHLjDNgU5SQg5LsdesrXC56m7H3bR2gBJIP8DX8iLsn6MBBvEIQBQVQinRQPiKKCaZvlaFWmHDUIxF3ZLpP+E/LkGXa0Sz3s8ObWDJvrEbvbX9A5PPSSqEyKM5n3EpGW7LD+u50t4mPKk19iIfHlw4eBv+ivC1CDU7mXPOdkygpnFVku94r6rsMqYbyKdQ2CsA46I6VHpHNsOsSmfaJSSmgmbCyF7O526Z4MYDImKlWKVJG1tMZTJasrySTY/hDey1AhPAPk40BKosqw5FhVuK3CFgYYo9BBGUdCP4lplJZQep6Dwx5K5yw2G7i8jUkSokAcGOR54m2jtSn37t5jlCnmFpvMNVvU6/PUG3ME5Rm0DPY6Efgi4Fd5Cl7gnk0gRNjzKyASYgug5BixdU4sYkCeO0ajHKVKzFTnmdgaD3ag2z2gfTpAu4SleUtrNmd5rkJc0qR5inYxg36fw6MDnuzd5vDklFqtxkytwdrGJu/cuEnr4mX/HE+WJM4U2bciwFNcqMEZdAkBMhy5vynzlVNjpTjIrBW9fodkNObJoy69fp+FuRZ5MuHuZ09Yb2b83bUWr27NE0Yhg86Ar7/qEJZCNjZbvLaxSZ7CNzv7bG8/o9sZ8sN/iFla30D5LCuq2wuT/60MO7eIAthJ5Yq8p9Gq0FqnDFFZ0Vxe4eCwzid3PscaxyuXb/LGtYusNVeZdAfsfHmHo6cfc/vOU6q1gLnWHE/2Tnn4+IRr3/kn3vn+T2lWlpkME5ZaDT786BYPv77F6uoCi4uLBJVSYQQEh7Kgz2RLVl7qrMSsmB1REO+6QpSqEmqLUQajLIYEFzs23nyN/ZMjkoc9XNDm2vd+xI3Xf0icRZjOIWsz89yNcj679zPu7XXYqMYcZykqrvHutR9xcf0dmMAk3yXeqmPMPL/76HP29u7QPnibxdVZ0GIeHISpX10lNYsYEQo5Qh+wMsivuUwrABsg4qdVTu5yb3MWW2usb7zGyuoBjfqAjfUWcbWCOeph7YiZesDCShP1dUwnmVBLJozSnGqtyVy9ielP0C4nnfRIsy4LzZqvjJ1Om253yOLKNF6F0YK9aU04D+SwQDnVjKnTklk4q3EqIlKh19zQQiWsUAoCqmGETifY4SGD3h5uckxmD5nYNpnN6PYVlRPDwf6YQSfxDeX6qnjmEem4zWDU5/i0z7CvWGg1mGk0IcLnelFQp/ZKsuwlPQslmYqSK5paeErPugS3Hyzho7B5zmprmY2lZZ5tf8rO/WfEmxH5eB84pJfssXf8jNOewcZVarNrTIYV9nfb3Prdb/nue0NKwZgsH9EfD/ny9w+plhfY3HqL+YXlaS2TSJAkL3yJyKoW0oKiioZFyfOlBB8cPtGKFZAWRnqwUiAfciwszLDULHH7V7v8Ph8RThLK5RMI93l+sMeTnT3WNm5w4eINKpV5utWnuOxjHnz1Oa3WkKW5CqPRmL3jHvfvfs2VGz9l6/IVSnMV0lSeaQjIzn2ZmxaLImQlZsVVyeGKALfFEnj5kFgPHC5P6Hf26B7ucPT8LhXdxSU5gxPNMD4kdc/Z3T+m28+4fv0mFy7c5PnzY7Q64u2rr9JqDZib6xKoHhiHzRIqcYlJknNydMpip09cq2EY+5IcTJsBb9KFvOmhrDWFjTkzj05j5FV4eZQdcXrwiDsf/Zzjp/ewkw6XWhUWKxHlcplJ3mFihxyepOw8k8S8SLs7oVRWXN5scmk9ZGl5SBQ9Y9KeoPQSo0mdg5MSOweKw17A5tUb3Pz791hda/neTxGgXQllSjhpL6JpGBRRLdCl1BathryLiZECMUlPefDgQ76485/MRj1e31rgxpWQGS3JItVtnjC+xMWNOhurIXcf7PP7Bx/RaBreW7nJ8sYMjZooRoeKLVOu1XBqhY1LqzR3Jvzyw3vcv/vflGYSZmd/TLlaQxEhsiXMimydNQvBB//2wQeeZS/GklpFE26cNJI5yeCQX/3y37Hjp7z7ziKvXixTDvbAHvoCElKmXJ6n0lhndm6NVmuBuaajN3hAnj2j1YJYt7H5EWVdwqTSdFa8Y6vM1FjZWODk5Cmn7T3CULPUWicMazgbinlESd5PC8TUSQrcAmhxJh5TEyhNno5pHz/nwtocq60ytVIhPybPUS7D5kMmwwPs8ICYASsLZb5740221pY4Pdxn/5unZOMxsY4IQsV4cIJN2zh7QqwO2Vy1vLFZwo33+PL272AyQbnIS2cutL6oZL4oiBhLUokZlmCYJphVGClzxvldwka1ikrHBJUxBBVCXfPMosc4l+IygzVjcmaJA8vW+kWG7efsPDzg9UsrxFp0FsqVkGzSI3DSPYf0x4b1lmF/L2Nn7zHZIKFUkg1IRaYMUpLCaTcjgVGw6vVN+JU9AvEFEjUxka7ijCbpj7HSoSpNHNVRqo6yCh0n4BKM7ZGlfXS4hLMRczMhi/UmXz84Qpkmgd8wOSSuxgzaPdLxgGq9hksHNEo15isp3yQThqcdypWUsBF5B5YrU3iCotyKaRCX5eutr3m+wMk+l4vI0pBy2ECbPqFMQBJTSraWTVgLeR9Me6qNA6xLCOI6Wncpl/GibpMKmAY67GLyBG+ShLWsTTlKcdpSUgm1KCbtj8nHOeGs1CTxJgW3kmyeWW/AVWETRHdlg9IHhJ34Wh6WAlR5FlVt0FdjSmFO4Pdex8ThLPl4RNJvU6nEOHdCQEI9cJRU6tulcSaldBGn2wy6j1HphGrkMBORNI2LFgjDDBMYRq6Li1PPqrgsbUOUeJcXzPrCEBTGd1o1pDdyboxSCWOT8c3hmNnWHJcbW9Rny5jBAaPBASoOcabh47Aa5QR65M10RTLeFA81YcDYlohLTQgOyCbHWNMn0mOUibGqgtKWQT5gaE+xUYIzhsh7aI07VwNZV3kJ+mIGPgxkmyOImJ1rceHiG6RZmTt397j/5SkHx8JCidrsIkFcYpAmJGZELhtwekjqeuQqwUaGFMtgkpIJ36lmlAWkLsaoGB1UQFewqkxYmgHZTZ8MSU0C0gfKVtNLBjwsOjWBJ4DPdvLkL6kjZRrz67z/439m98nrfHnvM+7ePaR9fMLbV2osL1SpxjEJlrE22Koid4Y0h6AUYcoRzzt9fvvpF3THdS5eLpHaGrgGJR0TitNSmomtkxiDC1KGScpYjIIkh5W2XbAVjWvoQUoyTZX2jOECvmzYVFnbuMri4mUW51/h3t27HB3c4aPPnlGOU9aWHZVYEbgZelnJ78WqUoWUGdrjDllYp5tU+Gq7y/bxCJsdMRslbC6VWWlWvQtojxQPdga4YJ5avUUpnvG/Z0ijKVp/5l+Us4kUNKRUSAckmiDvYmT8bqIV815MxqYZ3ZMujx9/zt7up3ROtrFmn2yyjcn2WVqIqdXKoMoMRiUePh4Slzd573v/gnV1jntP6Ha/YdLdJTZtqpHxC9tPQ/p5g9VXvsv7P/lXWsuveHWV3y7iOPL9nySYciYVbB6vsClu0pcIK5cDvz0ks9NOE8gkDYzHI8Zpl9P9Jxwd3Gfv2R2ODr/C5D1f1UZjSxTPMzv/Klfe+jHX3/2Jj8ux7dNp77L35B6HO/eZ9I+K/iqssX7pGptvvsfapSsY2XB2snld0KcCabdESo1H5SuY6Joom1SzosPUmBwiHaH8Ly5nKeiVhEmSYiZdxuMT+u09To52OT05YpIZFhbXuHDpLRZXNinX5/0HjAZjMrJhh/HwyCuIaLVSZeqzy5RrLdAxaSY7QdJWOZyVjejCxiqXF7C8PCgR4HwKuADk+XUix/I6sxKyS1PEf3gWUmlK0h+SjBJUqKnOzFCaqfof8awVkI5c2NEQK7HOktDpNFOK0isOUPLJdzJ+teUP638eKMJAwMoN3/FOt448u0VACJdFxAqqYmBxReOLiXTF0+0fLyjy13So332SXyP93pnBUPITFjUSsOKa/Xa9J0EAFGT4QPSTKVy1puSf8b+OfQwm8RXCQQAAAABJRU5ErkJggg==;" vertex="1" parent="1">
          <mxGeometry x="120" y="80" width="43" height="43" as="geometry"/>
        </mxCell>
        <mxCell id="j9SPHKjD_w-5UFpXXz6L-2" value="客户&lt;br&gt;市场&lt;br&gt;高层&lt;br&gt;各省需求" style="text;html=1;strokeColor=none;fillColor=none;align=center;verticalAlign=middle;whiteSpace=wrap;rounded=0;" vertex="1" parent="1">
          <mxGeometry x="70" y="67.5" width="57" height="60" as="geometry"/>
        </mxCell>
        <mxCell id="j9SPHKjD_w-5UFpXXz6L-7" style="edgeStyle=orthogonalEdgeStyle;rounded=0;orthogonalLoop=1;jettySize=auto;html=1;" edge="1" parent="1" source="j9SPHKjD_w-5UFpXXz6L-3" target="j9SPHKjD_w-5UFpXXz6L-5">
          <mxGeometry relative="1" as="geometry"/>
        </mxCell>
        <mxCell id="j9SPHKjD_w-5UFpXXz6L-3" value="" style="shape=image;verticalLabelPosition=bottom;labelBackgroundColor=#ffffff;verticalAlign=top;aspect=fixed;imageAspect=0;image=data:image/png,iVBORw0KGgoAAAANSUhEUgAAADQAAAA0CAYAAADFeBvrAAAYFElEQVRoBaWa249cV3bef/vc617V3VV9IZtsNimSkihppLHk8TieIPZ4MGMECJCHvATwg/+OJMg/kje/GMhDgASZAEHyMrZuE+piiqTES99v1dVVXfc69x2sXd0kpdHYMlxkd1Wfc2qf/e219lrf+tZRWmvNP+Nlvq1y0JBlKUqBbbuAejFqTo6FZf7OkUs11ivnLy/87kRkBLlWfis9/2Qp+/Ly7313vvfoP+GgAJDpZXlGmmY4jkWeZ8RRyHg0YjydGJDVSp1ypYxt21iWgHs5MQEpr0tAL5diflxdnPju8fnZb//+ZwO6HE5u5joWlmMzGw3Z3d3ms/v32d/fo1ytcu/NN3njzXs0Ggu4ngvKegFArDm3wwWAi0Hl2CWIy/fL+/2+d/WPuZx45OWPUgr5kZccm/8tf8kxWeecLJryzeOH/K9f/0++evD3rK6tsL6+biwVBAXef/8Pee8P3sMNasZKSZoYF01zjWU75DIuCusCgXFUnb+ArBEbzO/9faB+kIVk8nmeG3e5BDMHNN8XSTSh1+mwv7fN7vYTjg72ONnfoeyDR4JKJpQ9i0H/lE8+/L902rts3rrHjZt3CAoFtM5Iogi/UDJ7Tf+D5rh0zO+Dg+y1fzgoyOnLSy6t83IoRTQd8ejh5zx88IDTo32G/Q4WKb5rU/AcLKVwA49CsYTjuczCiNF4RKW6wq0799jY3GTj1m2SDLTlYFsuWr0MGd+ykMack/v/7lzms/pBgF4dYG6Z+RJmWc7204f8zV//F7aeP+PG+iq3b17Hs3NOjw8JfIfr61cpVSscHR9z1uvjFwMcx+WoPaTbG7N25Sr/7t//JUtXrhPHGcrysRyJkvPXHJC44XyXSQCS1+8D9INdTga4tNbl5yRJ6HU7nJ0cUvQtGpUAz9bUSwGlq8tUywGNRpVqrULRy8mTKWe9Lrbrkk6nHO1u0zk54Md/8B71RgPHL5HrDIUju+QCkpm+bNqXEeKVM9/9+IMAvfqlS/eT8eM4MuG5Wi6yuLCCpTMefnmfq8uLrK+1WKwtokg4OzlgMBpSL3uQl3j6/BmDQYLvyGZPmfTPiWZTSsUqeZqj8wzLElD/9NcPBqTz+QpdApJIkySpSXgF36FSKhA44OgG1VLA3vYzhucnrK02yfKc58+3mMxCglKJwLMor63guH2G4xmKDJ3FkKdYloT0OZBXbWQOSrT49sHfQfwSkCy5zudfeOVLkp9N4tPivbbx3TyTlVU4lmeSKp5DrDOKgc/dt96gtVjlwef3GQ2H7O4cE02nnHdOkcxTdG3Wmg3K9SafT86ZjULiaIoyDMAG5ckGmU/UxCuJFrKYl5Oaz+F3kFwceAlIDhhA801n/hSjm0WRLakNGxAgctiSSJRrBFyWazKtyYBCtcza9XXG4wHHO3t0j09Noq2VS6wu1VlaKOE6CuVpPB1jq5QsS0DZ5LjEmcJxFPY8BlzgkEh7wSeU/SIHfh+ol4BkASzrWyFTZj7/N/8klEX+GWOacJ7hOTZZnKJyha1sQ3/8IKBYLlJdqBJOh3humZXFCmvNGhYR4WxAmiqUzuYJ1PA0jRJKJJxQnOUCkCO+YNnmgM7zF4a6dP3vRruX5jDOKX8KsssgefmuTQY3N8tTsjQyfh8ErnEzK9VmRcViEsqRTCRuKcO5YHlQLDv4RXHpEcoao/MIS2l828KxFJZlCz8wXiDWTgWYjJcryIWhWOaal4s5DxmXwC6t9QogSVpzP5VLZZfIj0zOgNSQpLFxS8uxwNJMJ326pyeQRKhMNnaGYzvG0iY0y3gKLEehVUqUjIkSARRS8G1sNJPJkF6vy2w2MfcRK8mqi7FsQ2IFWE4uZjPekb9I9N8FI6C+DeiC8coaz/HLJbJrBJjGthSOa2GrnO7pEb/95EMefP5bSp6FZ2mSaEqWxIxGQ5TlkGSy0nOX0co2xySpSgnQ63ZRSlOtVDhtH/PRR3/L0+cPDbOYW0HKEOGwilwrcqlQXuFEr4J59fOLPSQALkFcvs/hzAOM7Yg3QxKOOdzd5uGDv+fTjz8i7B7x/r2bBOUig3GfyajP8eER4WyGzmWlA/I0JdceWeYwGeX0Tnt0OilpXmB5uUXi2Ww/f0J3HHP14ITbd99gsb6I5UsUFUCy9Bfec0GKL13s8l1AiWVfAJITBoj8UlKsaRxbbCORLGM6Fvc6Zm/7OVvPvub4cJ9B74Sqr8nSKa4b0KiXQCccHe4xHc+wZRNlNrYqMRmBry2ebZ0zG0eUK4tMxgmy0culImOtaR/u0G636bYP2Ny4yeaNmywstrBM4rDnTPwVxi8AvhsUvsXlZCMKKjOPTOPaijxLOT054svPPuXpk4cc7m1h5QkLtbLZZZ4OCVRErVEnKPuGwuQ6p38+xMan3z0nmUY4OmN5qUa3e8RivYLlWhx2zoi0g1tpooI6dlAhSjTdXh/X9rn7xpt88JM/ob6wgnILZqUtyyy7Mcw/Ckiii/iviZ5amZpyNh3xyUd/y3/9m7+mGDhsXlthoVJgPO4RhyHXVpdYapSJ04izs2OyLCbwAsqlKmQOX3z2gLOTLsutZd55+54ZO8siuoM22obW6jWcYoXeYMpkGjIaT3Acj15vyHAcsrJ+iz/95b/h1us/MmBdATT3PmOd71roWy4nESI39bsEUIkmEE7G9DqnjPo9yq0GOp5R9AosX1sjCaeUKmVqSws4Vo5lJbSP9uidHNDJMuJpZhJrtbpAuVJk7+jIMO96vcbi2oaUgzRX1ijXqvjuKSfHY3I1I43G5OMO+0/3ePT1Y9ZvvMbm3bfR9gWSy43zPe/fAiT+JnvmYvshoSUOZ+RpzJWVFivNKufdE6b9Q964c5NaJTChdRLmkI5J45RKISAappwd7pOEKa5ls7pSp9oo883WLsGsxCiZsLx2FdcLmEQZejiELKTsZiR6wsnpMclgRL2oSKc54WzIWBJ0oTqPULLSv+f1EtBF5pcEhqgSJk5m6DzBtTAJUOUZa60mrhMzGpxxdjKksrRBUFeMzw/pn+7g6SmODmk2Sni2x2AUUqs41BeLFDo21cUSsYrYPWlTCEpESYJKZ5wd76DDAXYaUlAJpWaF2oLPdLtrAs2csfwAC72I4Vpoe4qSxHgZ700NZJwPrTSe57C8sshaq0oajnn25GuOT06I2mOyaZtoeMRCSbG2VGGxtWqi3NOtfZJ0QpKFuAWHjdduUm8t8ejRCccHbWajAToe0D/eIsinrC3VWFutgxPQm9pst0dGSRLPkbleJn8Dzfx6xVpa2P4L8wlPStHaJssUOpUk6qKcImGcEekYK5AonNFoLVNw1tFZEQ522DrcxomHXF0ssdEss1j1TSkQptlcL9CaSZyDW8YOFrhy9XXi2TJW9IR4dET7eJ+rFYvVRp2leoAfwDiJ6Y5SPEcyqhR9wvolUQsF1thKC1l58ZLz8v+ly8kpSV6SlbUyeci2FZJQvcA1GzjLE+I0NiWy61coVpeoVs9pDF2qzgKby1WWKw6OjhiNQvI0w7JtI4QIL0uSHEe5KC0csMTSQoOpGjLyba6uNLi2HFD0NOPpFN/zyHXMLJwRhRG2cuZMwZozF4EnWqDSEowuj70CaJ6R50xIxEJJqgjRTKcUXEXRd4wLSaGXpRmpm5MJ57IV5cCnUfYolwooKzbBQbxB2Hkm/C9LCVwblca4KsMhJUmHpIQ4BUW5VqJYr2L5FmEyI8ltUlw0Ho5TouhX8dwicW7NCa9kJENohZ2LZ4mpxBiXioOEa1lBQwAVs9mMLImwHE04PqfbPiIaDfEsRalQxHE9UmHEuYT2HKVTU37L4AJYtDUhtmLdJMsZDkfmxp6opmQ4eQJEYMdoYnKVo20bbbnMUk1m+7h+lTx3mAwj4lmGY7kEtswzJ01Tkjg1bFwqXKUEvJSPl4LzhbuJjCRbyvNcbEdxtP0Nn336d3SO9yg4ivHwnP55jzASsDaWLwMhPMmEb9fzTSjOsZnEKb3+FL9QoVipMZuJNDwknExMue1Iue5oox9EcWpIrOWVsAtV4tyh3R2QYVGrL7C99ZxPf/MbBmcDAsch8Fxc21RKhufNwQiTdV7uIceIEjZ5EmPrjPbhPv/n1/+NB198wlqrxmub15nOxnRPO2xvb9NshUzC1Ow7qWWwHGJh13HMoD+lfTZgNMtwizVqi8tkWhapR6fd5qBaYxgmZKloCA7YPpnlMUsVg1FM93zC8+02pYV17r5+m84w5KPf/G96vTNuv/UGzVaTSm3BBATZm1LMiuuLMVSWZVroQ5TEzKKIQa/DwdYTnj/+gkdf/pZkcs5rN9a5dm2VQsFnNBkb1wyTjKBcpejmDNu7FFybSsFmOuwyGPSZhTGpcvCKdaoLyzSaq0zGE+OSsqyxcDjXp+Bqjvefsr62iJXNaB8dEKc5w3GMV17EKzVxikvEucdwElOqNbl15zZv3nuH5soVlO0SxQmu60odiEqSRIu+9vjxI549fczRwQ7DsyOsbGoSnp2FVIo+C40qlWqFSr1GFMd0ej2UYxM4tinyrCyhXi0YtxS9ulCqMo5Ss8G9QplCsUytXKFclNif0emMjbbtu4q93W+4siySV8Ro2KdQKBClOeMoIcWjWFskMK4ISVJAXHphaZnX7/2Iu/feQYtYoxwsCTzT6VTv7e3x6//x33n4+d9x8+Z1Q3FktdJwaMAsNWoUfJ/RYEh/0MfzHeoLdeI05OTkjKdPt7F0wp3bt1iWiVku7W6P/iSkvrhCa3nN1EQ9qW7TiGajDlmB8WhK96zNk2ePuHP7BlevrOAHLoPRwPxI1bvQWsHxxDOmhFFMHhVJMkVvOGUUZrz/03/F+3/0M6oLLVMmmMR6dHTEwd4OetpnqXyLK606eeoSz6BUCFhaarJYa3De7XLe69A/6xK4CVE0pnN0wmQ0YWV50bDA6SyhtlijvujiVnMaS8tsXL8BWUIWjTnaaZOMe7RqV+i3Tzk5PMRKc5I4YzQOKVar+EVN2XYpl4tc21inVquxd7DH40ePiQddStUadjrhs0/u0x8MuL6xQbW+gLI9HLN/4piFWpXNwg1Gpwc8HR2z1KzRbC5QKpWMktM775v8I8mwEw/Z33rEcNBmOLFpVFe5c/Mm48mYx199zfK1dbOy0gsK/MDIxfF0RMGF1cUqp4e7PD9qc9ru4HgF7rx2Hb9UZGt7l8OTNlc31ilV6xTKBSPu67wPaUatXCCcndE7OWU8yVHJiHFfFrRrFFoJ347EdaE/lVJAORdZSmE5Gf3zUwbDDiutK1xZu8Z4PGVv6zk6mRi30eGQspNTaS6SW2WqBY9kpqhXS1SKRXZ3dvBL51zfvEHuu5wd7hIPe/j5DCsa4RLSWnCNRVZaNRLLozAMSLE4PevjDCesrS7jOi6d40M67WOjNDnZCJUMadYWuH1zhcy1mU0HKCUJNscR2SlNUlzbMjdqtpa48dq64W6Pnj1l/2CP8SRkNo452t2j4sPaks/achPfrTKNCvSGCl8pPKVZay1y6/YtLHeH7YNjdp7FNKpl2vvbjDpHrNYCmrUS5ZWqiYSzKCeJhoTaZWmpwfLVG8QZ7O7usbd3wuB8zNnpMWftE2qVAhv1iI2rTQgajOKMcVYgz2JTWDpOAcdx5kqkNHYzS5NbFgvLazSWlgjx2T84pN/r0z44YrleZnUxYLXhU3I84mmXWLTpVLZIZETJUn2Bteub6EKFWLmcddrs724RDk650qyw1ijQqpewLU23nxAmKZkWUuzi+UWWWqssNFcplmrs7m5xcnJAOOqyUPNZbdW5Uskplkr0o4x0OkDUJNfIXrapehxbLCNaBpqZZ+Mom1ke0CqvUm8MiVPbcLF4bHPnVs2Qz6KOcZKUSGv60uFWoupkaMcltQISWanygtGv5S7dZEwx93nvrVt42Rgnj4hTNeeEaU5g+zh2Ca08ktwxIb+1skKWTRid71ByLK6u1lmVsiSZMo0mFFUBJ4vI0xnCGYRUSU3vpGli+JhlW+RqLi6m6VxbcJSFqywC16G1WGGxUabgpGSjMek0Ihf51wkM+5Ymlajb05kcFw1vTkwLjkOjWsEtZCw2akT9kCycoXFJM1FtHDw/IAw1YRoadVRSfpYmZuXrpYLR/OoVn5JvYeuAaDwxVCnLLCzbxfd8dKpRtpI9lBllMgwjgkzCdJFiwTPMWIRDK4txyAjT1Ohs0h3QToHM1aSZRZinjKLMlNIiLvquQ61YIJ5NIQ4NjZJKV8T9XFtkWpTVANstGJBpOGEyi0m0hV8IcF1Zb6FQIVkcEjguvu1h51JiZcxyH+X7KArMUpuZCJFCTkXQBKnhXNlIDAYD+r0ulcaymbjjeRR8l7EQpTQxpE/0aq0CLL9KnDicDxKeHnX4+mBAbAWUazXWqktzOTadFwCmxErTuUhreWTKJ1M54xCOuhOkorX8AfXmNVavtUw95rqeoTJC0uI4wvHmCyKK6zQvEVs2k8iiN5YyRoo+B+UVTKHtyJeXmy2KpQpffXXKJLGp1pqUyhUc2zUysDS2sD2UExBrj/4oZH+vy9bzHQ56EYPMZ+u4hzo+53ycsra+Qbnk47kuWRjjeQVcKyAjoDfJmU4iHm8ds7N/ymAc4gQ2B/1t2sOUYr1JbWHBbHbHDUhzsZeN4xTNHutHiq+/2WLnqEdnlPHuH75Fc3XdcDph/vZ//E//4T9La71ULpBmIcftLtvbu/TP+4wHQ4qBDJoa2lGqNjg47XP/wVN22yOswhLX3/yAH//sF6xvvkZvMObZ1g57u/tGCnYdB9fxCKPETND2y3zx+ClPd47oThXN9du895OfsfnGu8ZyuwcdtnYPjNAoubFcKjEaDkwushyHw6NTfvvwmMPTMU5pkTd/9BN+/hf/lvXNu9iub5R6lSSRlsoyjmYcHz3l048/5qvPP+f0cJ88HPPBj9+itVxjb/c5URRyPp6i7CI3br3B2++8z8rGbaqLq6g84cEX/4/PP/mI5988ZDLosdpqcHPjOmmWcNo5MRJUFMUsNRfZuPMjbt65x1WhRU6Rk8MDPvr4U7788kvDuJfqZW5vXsFXCVk4YDzsMOr38Ruvc2PzDnfvvc3K+iaLazewHN8smPi6yrLElA+yo+I8ot/rcby/z2cff8hnn36IyiN8T3FwuGPY7N033+Wn//LnvP7GuywsXkUFJbRlm761NLdEZPzmq8+5//GHHO7vmn0YxaFp6y8sLfFnP/9zfvIvfkqjtUGhWMP1ReKVXJhz0mnz/NkzPv3wN+w8f2KUJUcljLonuFbG7du3+cW//iuuXN2g0VrBEjXFcufdCekuXQKSSklqieRCvZfCa9Dt8OTxV9z/+CMePf6CwajHvXfe4U9//kvefvenFIp1E5lEzBFJV3rWsuOcPGUy7HK8t8OXn93nqwdfsrOzY3ojf/THf8wvfvUrrm/eRDllUzLnGSR5hrinNMBEFDnrnPD060fc/+RDvvryPtF4yAcfvMdf/OqX3L33JziyCPLEl6noBIWkm/nLWEg+iq5tAFkOaSJRTRJVYroMz7efECdTrm/cYP36Jn5QI0qliWWh5TJpaokmnuV4tsKVpluaMDjvsbu9xcHhAZVq1RRmzdayofkZHkoaQNJIyy9KeKk6TUWfkEYzjg732dvaQmcpm5vXubFxHcupmWuM/GYYwkvh5KJiTeaygM5IdY7nFEjlWQGtcaVgkp5QMiXTUhV6WMo1SS1NpOqWJpaZk7lOSxtSviftwwtlRp7hEQ0iCDxzvZGeJOnmjumpGkympyr1s5TT8mydYBbZKzFNaceyTX6Sx2wk4okQIy5q5Csl6dx0w+ZtTdlDYiHTvFcJlhaflOR30TkzMpH0S+e6tzGs+Jjc1owj5zLTAzXHTHNg3imXxTASrjxpZcbLyfPk4nk5AfTyqStRiswcLrT1NMsM4zB6hUm10jmUZ+3mc5WyR1xUgMnDTzIZ61WRRLBbOjaDGDlKe+aG83bFXPMSM0jnWqwglhJBUtwSHaMzyzx4JGKJ+KGskkzSrKKljNvIBAywLDWapjLfnz8bYRp0RgpVhrnYMmEhzpns7/kCzVU2ga1x5ClKI7+JJCZPioldMynw5uKicRztG21b5fOemYwjZpaVN/5pbDnvmslHo+tLF0nokEFrnGUu9puULOaSJvDL/qjQI/OYpZYlnJ83M7v4qmxIY5WLeYmmboinbHzhjkYllZubybx8YMM4Kvx/HymGcTTGNfwAAAAASUVORK5CYII=;" vertex="1" parent="1">
          <mxGeometry x="115.5" y="190" width="52" height="52" as="geometry"/>
        </mxCell>
        <mxCell id="j9SPHKjD_w-5UFpXXz6L-4" value="创意&lt;br&gt;功能&lt;br&gt;缺陷&lt;br&gt;......" style="text;html=1;strokeColor=none;fillColor=none;align=center;verticalAlign=middle;whiteSpace=wrap;rounded=0;" vertex="1" parent="1">
          <mxGeometry x="63" y="186" width="57" height="60" as="geometry"/>
        </mxCell>
        <mxCell id="j9SPHKjD_w-5UFpXXz6L-10" style="edgeStyle=orthogonalEdgeStyle;rounded=0;orthogonalLoop=1;jettySize=auto;html=1;" edge="1" parent="1" source="j9SPHKjD_w-5UFpXXz6L-5" target="j9SPHKjD_w-5UFpXXz6L-9">
          <mxGeometry relative="1" as="geometry"/>
        </mxCell>
        <mxCell id="j9SPHKjD_w-5UFpXXz6L-5" value="" style="image;html=1;labelBackgroundColor=#ffffff;image=img/lib/clip_art/people/Scientist_Man_128x128.png" vertex="1" parent="1">
          <mxGeometry x="107.75" y="300" width="67.5" height="50" as="geometry"/>
        </mxCell>
        <mxCell id="j9SPHKjD_w-5UFpXXz6L-8" value="产品负责人" style="text;html=1;strokeColor=none;fillColor=none;align=center;verticalAlign=middle;whiteSpace=wrap;rounded=0;" vertex="1" parent="1">
          <mxGeometry x="107.75" y="330" width="70" height="60" as="geometry"/>
        </mxCell>
        <mxCell id="j9SPHKjD_w-5UFpXXz6L-14" value="" style="rounded=0;orthogonalLoop=1;jettySize=auto;html=1;elbow=vertical;edgeStyle=orthogonalEdgeStyle;curved=1;comic=1;" edge="1" parent="1" source="j9SPHKjD_w-5UFpXXz6L-9">
          <mxGeometry relative="1" as="geometry">
            <mxPoint x="530" y="290" as="targetPoint"/>
            <Array as="points">
              <mxPoint x="295" y="250"/>
              <mxPoint x="530" y="250"/>
            </Array>
          </mxGeometry>
        </mxCell>
        <mxCell id="j9SPHKjD_w-5UFpXXz6L-9" value="" style="image;html=1;labelBackgroundColor=#ffffff;image=img/lib/clip_art/general/Tire_128x128.png" vertex="1" parent="1">
          <mxGeometry x="260" y="290" width="70" height="70" as="geometry"/>
        </mxCell>
        <mxCell id="j9SPHKjD_w-5UFpXXz6L-11" value="产品功能列表" style="text;html=1;strokeColor=none;fillColor=none;align=center;verticalAlign=middle;whiteSpace=wrap;rounded=0;" vertex="1" parent="1">
          <mxGeometry x="260" y="330" width="80" height="60" as="geometry"/>
        </mxCell>
        <mxCell id="j9SPHKjD_w-5UFpXXz6L-15" value="计划会" style="shape=image;verticalLabelPosition=bottom;labelBackgroundColor=#ffffff;verticalAlign=top;aspect=fixed;imageAspect=0;image=data:image/png,iVBORw0KGgoAAAANSUhEUgAAAEgAAABICAYAAABV7bNHAAAgAElEQVR4AbWc95Nc15XfPy+HjtPTPQEzAwwyQIJJFIO40tpb8m65XOV/0r+6bK93XWuvt1YleSVRgQEkkQOBCZg8nbtffs917ptGIClqZGsbNeju16/fu/fcE7/ne1tL06LINMgATQNdPefopOqPIkPTdApsCuQhZ+hQaJDLyZBmGeQ5ulGQpQnjcZ8oDvG8BrVaC00rKIoCXdfVn7yWhyY3/DM+EjIZDhp6+Vxoak7Pb1He9vlb1DgSCkJyTBLNJMdCk28XYFBgylyNQs2zfJbXmsw8R11ATQ4KkYu6bXl9GYjcL89ydSHD0gmnYz795Dfs7m4znYxYO3+d1268w+LighJQlmXPBfTnFo6MSidXwpGxKyF9U/6zQb8QkZqjlsYYOuS6gSiLzF7NrdAw5YXM3cwLNDmspJyDpnSp/PSVlX71ruosTWfQPeTWzU/5xS/+GdMEz7EYjGPGQcqHH7xPp9NRw8rz/M+uObP5lnojE1A6MDv86vNLw1dTVcphQGFgFDqmpilrEgMRfTANLVNCeSEckYlOoYSijoIuJiKmdvKtQiu1U0xS18jzhGcbT/ji89/jWho3Xr/KYnuOz+7v8PDhQ5YWF5ibm8MwDKVJYmL/Ghp0MtoTgajpv6L1r0pKPi8VoTA8Ck0MSoRUYGjl/JRb0IoUjRi0FIycwoRMN0h0g0jXCXSdGI1cm93wxW3KQwVFknB0eEi3e8zVK5d547XrXH/9OjduvIGmG2xsbDIej5VQ/jUE83xE4lOUX8kpyNSiysIWhbwvjePFc1G6UV0nMR1S3SQTwWg5epFhFilWnmIqA1NqJx/qz03rRFdmLlk9l761QJcLKXPMS/ssEtJwgBYOqesx1XyCHeRUrBxdzxgOj5SWyURkwDIyTVdOrZyPmuGJI/x+A1Ea+Fwg8kKNfXZEQo1yJqUFiOMUiWgyZnkh3kUe5ezkiJKSJiZZiq4URSFfUVHLRDNffEdUH/25UMoPZv/r5AXkhQhFXkukK9DyBM0saDWrmFnA0zs3WakUFHWfR08GhNGE9bNL2JZOloboulmGy9llX3pWQpdrYrx09I+8VLOUc8RsZz5URyvEr5TzZxZ0lHeRc+X65UzV1/OZ4ORoKbxcK4cpo30+gpn6vzgy+0iO6EpzMhGSGo7+XPkKPcWtNcgMm9v3H+E6Fu1GhV/f2sRZusilSxep1qqkcYamy51L7Zldffas5ldG2NmhUz6Xq68mrhnl9ZUGnMxO0pQifWmqEqFLQcgNvj3fk9tqmpjY9z/KnEXWtjRBmZtSZF0jFWGlGl9+douPf/FLDkcJSeHy5GDEs6MhvVFIrTphb++Ac+cmVKt1VNKlVvu7hzVTAvn0uXIofZ8Nunx++dCLM0tHK1N+fvXnL+R7L795fvXvDRjfK6BZQieXzvNM2bI4XbEyyRfCOGN7a4v/8nf/wG9/9QtWOi2W5hfx5peYb9Zpv15nvzfi008/I0vhww9/RL3RQuVDhf7SwF4MVu71Ug6KVjq+Uiqz/189fXYUMXr1UN85EYY6V6KwfCLH5IWoqSz5iWm9ksY8v5x68Z0Celkw8lrZdp4oM5OserY+UZxw78Ejvrh9j944wq/E6FbIXFiw3lll/eo1plHEwwePuXfvHo1GkzfffBvX818axcuzLV/Pos7zk14+RaY3czXPTygnPhOQJlHrFRWTxPFE8q/okQhIsu3vNnn5yrcENBOOPM8WTzLUIgnIcg1LXAgGlm5JGs1oOCAMQyzHIck1DntDonsPyTST2sIy6xfOE4UJd+7c5e69+6ysnmV1tfJ8ai9evJCCrKxyVapkKDVBPi3yMlyX35GJSb4y+544XQkipXMto5a8z05MVRxzmUoqE1ACFAH9YeF8S0CltpwMSGmO3KBgMuxzuP2Qbn+CX2tQnWtTa84TT6aM+0dILlXkGaZhqCEc9frcunuPVqdNmCTsPtvh2e4eumHzwx/+kNXVNV7OqGWi8l7UXxJPiYxFViAaGsexGoPtuPheRUXOotDUxLNMtFt/noDGUYLjWORkTCYjsjyhXmsqLREx5pksuoZhSBRO0CUBlsU/EeqLxXrx6lsa9OIjWQmN6XjMwzu3+fif/47+cIJue3i1Jp2lM0pIOxtfk0UBWpaoesY2TfLUYjqdKI3pD4YM+gP153tHTKehukWSJFiWRZ5lmFKbzFxyAbqWMxr1eHD/IZtbW+imxdUrV7l27bUyv5FIJaoiU1fCLV/LAuVpxPbWY3Z2N0mykLW1ddZWzmPaNSWcIi+UgJ4rnhLQH87svyUgWUmpumerOplM2NvdYevpE6qNFuJtd7Y2ePrkCaZXoTcYUfUsDM1TGaih61R8nySO2NvdJ00KTNPAsmyVA81MQsoOuUdpGOVEZcJpmjLu7vDZJ7/lzu27jCcBGAbjwTHRdMLFK9eo1pvKyZqmpbQjCCJsyyIdj/j66QN+8/HPmYQ9VSLd+fIm773/l7z5xvuYVnXmltWCKO1RYv7D/70ioNLvvFgZEZTjuLTbHRaXziBFyXga0ev1GAwnJJqO5/nUKj6ObSslEI1wXQedjGmUKPWV7+d5oaJXEARqNHLtUrfFr2jKv0h2LZ8/vvM5n3/8fzAdj48+fJ8kzfj66SY//9k/qZquWq0q31GOF7JcMmXY39zg41/8jMOjLS5dWcWv+3z9eIvPfvcxrlHlyrV3lNaqAWhiZpIbzULOdwvpFQHJKbKq8pBQLKtcr9e4dPUak+4HbO7scnjnLgeHxxwcd4nTHL9SxbRsKtUqnueqRFDUOE1zlBnZthLwcDjk4OCA6XSqri/3KfK0NK0iL30S0O/3uXPzE4p4zI03rvPeOzfAdnEMg7//h3/k2fYGC4tLuNUmWZaTF7qatGBST+7f5cm927z73mu8/97b1DtzLC0s8ouff8Jvf/Mxa2tXseYa6v6zaK+mW+pEefwb/78ioJlwZGVE1eUh/qHVXuCdD37MlTBi7dI1Vr66zZ1799nfP2QwGjMaj0kLTYVvyzSJwoggisrBG5bSQokWMqHS34jyiMMsnaw42tJhwng0YmfzCfPNKqtL82TTIY6hsbLUwTUNHty9y9LSKuevCRAn7qCs6zaePuPhna/IwilrZzrYZoZnFpxZnMdzLbY2N8jVgiAYoCqXVDqkjPQbUnnp7SsCkgHLQwQl2iMPNRFNZ27xDHOGid+Y5/qNd9g/PFIacef+Az7//CZPnj5hEkZIKSJaItHPdmzEn4omRVGioohlWqRJxnH3SOI2lUoVz5e8qJyophc0qzZxMGTU6zGutxgNQ8JpQHtujvt3vmLt3Drnr1xD022Vk03CmDu3brP/9Gt8S+qwhMP9XSyr4HD/UEVF29SxJcLlpX83LMm65bXkSKXVqAl/479XBDTToJcFJOfnAiLpJmmW49SbNOZtOssraHnGu2+9SVPPeXb7JnkwITBsFpdWaMzNE4cOUd/k4YOHbD67w4VrFxikR/z3f/xb7t+6jWvDhfUzfPjBhywtnoeswpx3jub6G/z2539L4+6/sDg3YTCJ2R9bWM0Go6OU45FDHJjYrkYmSIKe8HV3h11/gfOLPju7R6ymPl0sHj7c5fGzIZeuvoPp2uhmhiYQcVJQ6I6CU8ts/buF9J0CEqGIkGYaJY5M0i3BS3TLPDHfgjSasvv0EePDXa6eXaFeb3I8DFhYXiHXbQ5HOaNBwORog/5oH904w82bH0Ns4hk2DrDx6BYmIR+8b+PYq3z5xdfc3uwSWg4xY7Z3P6cfhIysFSJvialhMo4hmKbYjq7q3tws6OcxPb/DpXaT3nAPN4/Z35+ysTti6zBAqx1z+95dLq8tUa1VIDfIdUfNxVCx7RQC+oZ2PX8rXxWDM3QRTlnBGGjs7e3zP//xf7G3vc27P/oQ2/X4/NY9xmnEOJ4ySgssz4BJjqUZHG5sEe71+Lc/+ks+fPd9fN/h7t3b/ObTz3m2E9NoX+LmracqWr790b9hZXHK3uQBPX1M5o6Zpj3G6R7d3mO6+09o+GfRHJOj4wGTcUy91WHp7BrzSR097DENYuoLDS4abYbjiP/9s3/h8dIc169eYv3SVRy3QpqDJAt/6PGKBv2hkyQZ1zKpb8RPGCrsaoZOmheEaUqiwzAKScKAQRwwDAZojodZd/Ftk9zw6Hdz+pv7XH2jw/sXznKhUYVqDfPSdb744gG/+/wmteU+nbWLXL36GsudnCS+Rb+/S5ok9OI+sabhtqfsdW+zsb3C+lqbaWzw8O5T4lBjaf0CS+cvMs8IPehST3POVBY4n7tsbe+x9egOd59ss3d4yPX+lGtvvcP8fOsPTVsdP5WAxIkVWQld6raOhHGBYFvz87zzgx9w8/Oc+48fMZxOiAs4HE1oLSzRaNbIgymu4+DpHsWoy5JfwU+nxEfb2FELT7M4e3adoV+hsnqG9TcucmZ5GfIDegcpA6dgamdMjRDdc5k/b3F0b4Pt3hNw/opJN2Lz0TOqZpPm0gqpW6MfJthOC6vu0Vg6x5xr47XaVKo+ZjTk6/u3+Nkvf8Uk1/kPf/NXL4DG7xDVqQQkvkjMTFXZ0i8SRDGHRr3Bjz74CN+x+fv/8bfce7CJ16gTjqck9RqW1VS2bmh1GtW2+t542GPj6V1YXaKRhxwEBrqtcfbSCtXzC2jVEUdpgaGPCK2UQMuJiwzLF6PO8edNduyA42xE6lpkWsHgYEDFaWBVm0yw6E+lS6PjFjp5ouPbGqbnqAAz77WYTMds7u6zsbWlfND3BLFvV/PfIUSVzGnGCQYp2L+hq2LS0Aza8/NcXF+n4Xoq1b947SpLrZjdoyOGjsH5s1eIhlJbJXTqNR7tbtJ6lqPVI4x4xNZRzFFukdgVdKmv4pwozIjCHpbWxRVTzRrkhk6YmAyzhMyxGBsaU0xyE4b9kWo4pMMRjZqnTDrLdIpRSnjQo+p7ZNGULM857A7pTwJsv6qairLw3+2eS0l8rwbNIpnCVgRh1aXzKPDlCSaTFxRpTm9vD7fI+fHbb/Hv/+avSYucj3/3Ox7vHHG4c0wSaCob9toVzq0vUixmbBddksmQbmYQ6j5pNqIYy2QcJsNjtCKjUrGwzRrkDlGaI5WBQ8JweMjdJzv8w69+Td7VSYuCimMRRRFhUqCZFaK4IM8C6PWIRgOSYKSSSJKQ0Xii/Khhqr6pKoMk/5qlOTMlEcv5XgG9fKIAAyqxUrZW9sO0XCcOAp7cvYtX5Hz4k4/48I3r4Fisdxr8p//6M+5t9JhvL/LuX7zPyoUG61ddUrYZjXeYBhGJWRAnY4m6JIlOFrs0jTGO7WPZDmhuWeSGMeE4wAkzWs4yo+OEX/76Mzr+Eu2zyxiGw8RAwSMCq+i2j16kjI6fMRz30NIASRYlox+PhsRhqKATAVnEZchDBPLys7w+lYBEspIsysWkIpX3JWAn0F7OoHuMlkecW+5gFyEaKWeXmlw6v05stTh36TwX37xEddmi8LoMoynJ8YBomJEYMXlU9uRyzSCJE+pZSrPmo1eXmMYu02FG2B0Q7AdkQ403z75JUjQxnTaLnVVc3aB73GM8HZIEPqZXR88z4lGPycEWVnDMmXaDRmOOQZDwaDxQHALbFPzqGznfyXs11dMKSPWxpGddFjFohaaqZxGWpOyOZzANR+wfbVNpFKr2CeOQ1uIcry+ssXx+geaaT+xOCLWQSZwzAUIzp/BTTDtVpYkko2Gk45k1qs4SsbHEeJzTP5yQDzycKMUmZ765ij23RqzXiHON0XRKomf4ujT7EookYjoZEhw8w08GXOzYvHnlDE6lyd4g4vHDx0wHAywhU5xALDPzUijDiXRObWIljlEotFAAddHIUiklw07wGz6JkfDVw5s4zQzXM+n2jjgOW5jtGkYjphdvMhgdgZcxlZot0xE8x9AzVclHUar8R5RrRH6L/rDKcGirP1ubwzZ7RGlMs+Hjuh6ZaTLNcqKkUNX8YqeDbhoM45BREJOFE8xwQFMLWK9WWa9p4Bt4/jyrkm0fHmNI9+GlhwhJhCKY2MzcTmdiytNLX8xS3VfJPkfBlOnomKcPv+DR9hNiPWF3uM/mcRPT1hiMuhwkOVbo44YT8nxEd3KAEQi9RMcTgM2WfAqCuCQ5TGJp9JpshCb1zMX0FmhWF+k0PbL8EdvhExJ9jNmYkEq73Pap+zWapo2va0TZiDCJ8EyDSrNGFjjUBwFOEJEeW1gCC9sdTCmSXQfPlWJH3ETpNkR7xA2JAgjcI49TCUiuMesUpHlOdzDi6cbXbG3co3+4ie5ZXHv7dUwroPCgN+0pjcr1gl54jD3oUm9DVowpQptapYVh2GpwqRYRFgVJVhDnBpbpk5uL+HOXqNWvYGc16nmBMzfBOXeBMO+TVhz0qgOmTzqF6WBMFkcMkn10Z47FdgdXKzjajonGXWJHIxqa6KbLcRSyt7OtLKAhwJs0HsZjHMfBtm2VwigfK6jqNwUkajWzRZGevFfH0InTjEIbsX24z+8/u0W3OyRNpwq8unDjEo05g0myzd7wPuNRTpDCNNkklAEUFaysgWHmeLZPpWqj5w7h1CYcuCSjJtXYou3NM9dY4pz/PrXaPLqTkRV9dMniOzUa9R/jxSm5liHd3P29TfLhCEvTGR736MVTmotnqTYqHPZ7HAUTCtH6KKA/OKZt5Dx9NuBw9z65scjBYcRvPtvk4d5jmr7PtYtnWT/TwdKlbyPzNU6nQYKY5IVGEE/57IvP+f2nX/H6629x+epVKhWBjDM0J2EwNgnDjNDPCeIczQ6x0lhFwCT1sAxPIZC+VyWeGmSJSRZ6VDSP5flFltqrzDXm8eOz6HpCmh8TaxNV62VmA9trocUa+fSYwdEj4sMNmo7JSnuJiTvH067GeHDIMTCOEuxKlZA2e8ku48NjmuM+3aMRaRHRG4341Sdf8Zt7z9gd7tBwDXrvvoH3ox8okK2M2dkpBaSYYSaGWedoP2TYz2jNL9Bo+ST5HmE6Jg9ipsFAFZbiY2zbwipcpllEnthksYlpOmiZTxFXmA4Sikh6+E3masu0m2fwnJpqZRfZFKwC0xICQgUtlW6ui5GBa+WM0gHHB48o4gFnVs5zbnkZTbMpNrd48PQZSRhS8WqYXpPY17FyBz05IpoOyG2oLtWIJjVyz6PWbnFttcnexmMeP3nChdUF2q0mrmuI9Z1OQEJ3kdZLJiSjvEEcuoyDiMP+NmH2mIKxAtOm8UTBIbbjIzmGVjik8YQ4yJhkkBoadq5T2Bqe3qHSbFGvdGhU5lUtVWQGQRZi+8J3zCgMDdeskmc20cQgCTJsV0fPp0SjA1wmzNcMqrb05XQ8Q6PhuRi1FoVXR7NtiqpL1e0QjnfoHe/QqBo01jtM6ZA7i1SqLYhHxOGE6eCI4SQsaUC6jV4Ic/FUjxRp0uWpjed0MK15dSE/OCbVtojSHuKdddPHtutouKp2ymKx/4JwElCEFqZbw2ss0PRWma8uUffbWLqnNESLDBzLxPV9DCtmGo6ZBkMsx8Vx5zAdR5UUtl6gZwVGnlFkE6LpEbFnkiYa0v6R0tz1PTS/RmE5JJlNrk8IswF27QyN2hxea5UxDXqhQxzn5IJXuVWKeIrt+ZiWoyp8QS1OISBJfKQCKwFyXfdIM7MsE/IJeBOyYoKpOXiyapbLOJoiOHEwzEkmHr7ZoD23Sqexyrkzl5mvLqOlgipWsIRZqheqpW1pwpJNGfX26Q12GQaHmLZFa36NZn0dz6tQJDm+U6PdWuRob4/NnccU+Yg0yuhPF4iFp1pkhEGoGBaqC2t71Frr1Ko2muMwygySyKSwbEXoEh6ZcHqjVFBTaVgJ7aVAMK9TCEjqkxhNjzENH13TSTJNJW1BJvV0gERs26xQrQibtcJk0ieejNESk/n6Eu3WMmvLF6h581TsOQzxCehIjBAQwzYLxW1M01Cx0Ta/+oo47ZMaYzRHR09SzNxlrnEeQ9Op19ucOXeB48EDNo62iArhB8R0cdDdGmkSszvYJ9VcmvUmK4stOotNfNtgGoUK3BOuoUA2SVpQmCaxwNRCWTTMsvbTMsUsOYWAxAaF+hKoEt50NEyroD8ZMZ+mmEmOa7v4bgdTbzMcQjhI0ROfdqNNp9lhrtmh7s1BZkFiqvWxDUMxSikSTCPDsjSm0yN29u4xfPaE8xeXqC/UCPKIo9GIve0NGtU1DMlVPJfC9TDqNeLUZmc6Io5TjtIRDhZZ3iPUpbmoMYhTGpFEWmk9C/pQKNDeKEzMLFfmmkiUVmipqdrTiuQlvY7ilE5ammtSgBbEWFaG6RREUUiWGipbTQIdM7ZIVWfUwjUqzNfnaNXmqPkVPEtMw0ScsPyzbBFSoRqHup6iG2WxGiZdjvvb+OaUllvQadVJLYswPuLZ0YggCEl1g96ky1Ewwp6fZ66aK41NxxFFVker1TGcGnV/gSS1SMOESZSSJBqmIS0hCyM3MQUvzwSP1hDPpfI/yaAFwlFJoLiWUzDMSh9+wqwnxXIzDCsjjhMmI53c9NEyHbvqYzg+vtHAq9RpNhdxTelbZRSRSaZMSkeXfpuspJAGdNHpjEwKh0wmEjAJxjTMgCQ6UtFSF1Sy0EmSnMFkQp6mDMI+qa3jzS+QTyy0ooZj6qzVr6F7VSLNJaZCOs0p4kwVwkma4moWunCh0RWLVSp+XXhPCjEroQ6FVijdK2d+OhMTbnAh/kdWP0czEuKkIAwqmM4inlmhYq/TrKzgWhUsy1M+Q9HQFPGzxI90oQ9qOWlWYBpSh+WkhRSrAm6JmttoVoVp/IRRbKEPLYLxkO4YDK9NYemMRIhpQm4apLlNmNfx6ossNxbBahPmcDgJSeKcNE9LIpUuQGWq+E2KZSs6ItGQ9KTNWiKA0h9Tf0qDRGCn1aBCijohgWuEqvCM8P0mtcoKFR9q3hwtfwnfrmIrEqsAX4mCNIXirxu6Imcb0iZGBCIYQMlTlgGJo9ZND7eyQGvhAscbv8ccdelpAcfTjGkhgHyH1IRnO4cMgx6mn9Kab7K4cBbHbmDpFYajBD3L0dIUXRHCU8UVKgmccr9cLYrwhwotJdczBdWWgpF6QQrUEn+fkdJPpUGaePzEpCvV+9MnjEZDVi5dZWnhskLpanYTF5csCcmKENvIyIThKY5PWsGSYArRQMtVR0SZVyZQg6UiRpZIYuhgGC0qlTN0XZ/DUZ8iPmaQJsT6iGTQJrbm2dw+JMlzGi2P5cWOAswEmO8ejdFDMaEcMzeRfCkmVvCvBAKxbNFeEU5KQqJl5Eau8jspK6QYF6qhpDMzzvTpNUjiWJIx7I85PDhgOBgqk7AEspBJaj5FrlGkohlpSdouNJVTKOEIhiBsD/HFkluovrgMtlBqL+hSOo0Jo4Qw0agun2MwgGk+JrEMRqFwho4YFfuYXg29sEhzjfFYI4p0bGGZCWXXskmzVO250DLJbJRClBxEcaOGjKkkvyutLcA2dCSKKQGdwEPKGwmf5pvV/MuVvPr0uXdPMeyIuUaVc2sXuL85YPPpJpXqHLW6JIERFcfEtcWPSH4hSZZwdlLVtTSlIyIdi0xSME2trmAu4n+mYYBX9RiOhwhZKyxCrJWLGLUmaX+AaJflOmhuB+otHKNBGEEQTpmmOmmmYRs5tpkyznMS0QRTQ0KTKa3lLFBbnKKsoObbpMFUtY9s4TFlKbZuEKQiIjEu8UoGkbAwFWB/qmJVKLNiAtBsNTl/4TLz95+xP5zwdHMXz+9x3Kyx0G6w1GlR9X3FEZLJG4q/kyjZmLpwCcXZ54RRpFhnhmkoHmEYFYzGPaIkVilAXLgkegXNtWm35qg0JEN2GUU6QaqRp5niCQiyJZ1eilhdNy5yMmG4KgaoLIX4TQmamgoMSZYqONixahzs7nH/1ld0hxMqzUVMzUBzXZUPiQbJeoqGn8IHld48l2a/aWL5VfUnoLIQFMZRTrBf9sEn04TOfItms47jeph6TJ7HKiWQvViOJRCroTiIQs40TZmExnQ4ZjwcUugFjlMjneQ4lk91wcP35zDsOsOoUPmMFKXSEpo5URG4ZHTKLAQyPWFEqfdqX4js3oGqFLGCXk4nbG08ZePJE+7evsPuYZe1y6/TbtbUNVVwUe6zZL2dQkDC7Je6RUFIxIL8pajaxRLWqWGRCiA1ChmP9zg4HrLQWWC+06FTM/ENq9QoYZ0FiWq1SDQT/pAWJWh6zmDYp9/vlREmT5TZNppNRS4IwpT+WPyTlAGS1p0IQ4lW3Kg4DpmRcAdk94isvKz9Ca4sGpWlTEdDJtJY2HrKw/t3kTEszDUZDsdoQqw6+SudtbBi5E6nDPOyKupPeIYqPGvSTFJqa4jnN2yl6mka0xtMmYa7HPbGDOZcFudqNJtzuLajIoiouV6AY7vEWaYSv+64LG7TPFIJ4+LSOSqVOeUTcmkjCdwibkxtbVP0MJWjKC1SWX5ZTJ8wpZW5qbJCiStT7Ns4mHDz418Sjvp0WnO8+85bHB4c0ev2KJKYyaCPZwvJqmwmKnqxbp7GxMp2j6TgQhdTOK2hK+eWiOb0ekJNpVar4rkCLUjWm9HrDghHXQZ9n8WFlNZcC9exsSwX3dBI1d7WIVEyZmu/iybFoQHhNCZJpT9mlK2gTMfQXQxdKv1QZdWK6y+qIlqo1lkcTQmRSqgW7RDYNBNTFM1IE4739xgNerz7+nXefP06S4sdHgJVx+LJ/i6+Y3B2ZZma7yvAXsYn3drTmZh49JmdZxFaHmMUCXk85WB7iygIaM01qNcqzM93sC2bJBXYNWW/O6Y/2aY9COh0FvDEN9mG6m7uH+wSxiN6gx6NhoeweoVzOA1SGnULwzLRQtk0LI5eU4ikIZl3FqpCUrRKwAnpSYtQzDwn1SQrT0iisCwpxNiSkCQNqLoOr1+5xMVzKwjpvNNq8trVy/Si2zSqPpcurLMq6KRUnorN8g0BKYD+hOU6C4Y6izwAAAkMSURBVPPqmALzZfMu6FmMKSz1LMBIpjiErK62lQPeebbFtHeoOpidxQVs11dbEobTKYPxDoMgxTQs5R+EUDkYjSi0GMOqUzgek3iCLXyiXHhIJpqwM3JNsgOlldIjkoRTAVmSoktIF2K4Dp4UwFHM5qOvuff4Kd3BhOuv3cARKrMptZc8C8pZblYWvGeh0+EnH31AY2kRz7K5ePE8i50WEnE1yy6j70wQ3/csDk+IkZpmIe1tS8+xRIuyKa2qxU/ef4tza6t8/sknPHj0gO7hBlnYxawvUplfplatMhxNODruqegmXEcJx1mhU6nW8asWlmcyiWTC4lTKzXCZdFIkWTMttChXeHeWSCIqbrmcqGNbxOMhRwc73Hn4lM1n++zvHLC1e8Byp81yZwHXNrHFT0qJE0fKNJX2uQ7n18/RPrOs/LyvIp2Guoe0SU+zX+y54E52xEijv9wInKAVYmoR83WbH717kUtrLR5/fZmbN7/g/oOHdI+3GU5HdNrL1GtzTIMyoqSpErmKSoVmEsuWWSlcUw3Zk6H2bZzsM5WRm6auiOphkpEUhqrshdAl2hBMJjy6dZvNJw857A+5dPEKq8sr/NMvfons2hA+Sv/oiCIak6aRMmHJn2SBxHcK3i4JpKmJTok5lwsgmbk4/VP5IJUlStdRNomdmKAUgKaBEpZWRFQscJbn6LRqrK8u8GTjCr/+8h6/++w2D/e2WFw5T7WxQMVbwLZMZLISjAVCFUZ+HBYk4hgVJTjHtMT9yj0TFS3FHcutZeAyKdkBkEUx9+/c5YtPPqXd8PmPf/1TFldW2do94ve/+z3JdMKwd8TGwT7JuM/FtTP4FU+teSGpvDxEUFlaZt8CkIl5yY0kUTwdJi1XEdp+IeBA+XsMeZmZykXEOaqcUyEIGVXP4Py5FZaWW5w5u6Ic4le37rOxfciucHU6UxqtZSzDIlPpvLR7ZZA5mWA3Am6lAmGl6Lqlopu0hMW0ZYuTwpdkF4BZRkLhUudZyls33uC9N28gu9pGo4BOs87Go4dYtoVrGVxdX+PGjRtqK4Pa4i4JqxKS5FEl618gWKkdBXZVwNlpuxpS36a5xItCMerDNGcUBFijEXkcKiqusLeKLMIwJBRpOLbJpXNLii1/4+olbn7xiE+/fMjOwYHKyVoLy8oRC/s1L6QHVTK8RbGl+k6zWG2xkrLBtj2CSUS332cSRAqzsZXxpIr/2Kw3WFldURotrmlxvsWPf/Qhv//8S0VNPr++xmuXz3N2qU3F98ptD7IzSJgYsshq67hoaLnBRgKBPL7lg5RqqY9e/CfHylxD8FmNdqPKfMVmMx5DZHL1/FnOLi+pc4SxpWqfPFekJKHXuq7NjctrrCwtsHZuhf/8337GzsG+ypYzXaPX20HXc+bbTWxbx5Xs1aqogOBKMqplHOw85vbdh9x5uInl1Vhbv0RjoVPu/0olSSxRQgxLRdpmzeLH77+nqIHVeo25Rg3fttSWBsXckK0PEiFPsB/51QVJDEVzVG4u7IwTUz6VDxIjEqqIqOTltUV+/IPrVPVYUWjf/cEPuHh2RUELpm6TnWTKgj0L6F1II9DWaTctrl09Q2veZ3O3p86bTIZsbt3BsaXtcxZHr1KpNijwKAqLQPzHrc/YevqQwWEXN8jY2t6gVqly7swynltjEvSVUJIoVvhSoWVYpsZ8w6dVPzdzmeVef1k9mfjz2l3eyo+XCCAoD5mpBNHyDFGNUwlIWj2ydUi2OjVrVT764H2uXrqA53nMtVoqDIvjlJxJbvJCE6U2knxFqm+BQEo8yBBcJpP9G0IRtuh0Kso893a7tKrzKsweHuyzc/8rNu99SWeuyoc/fIfutKD789/iSl6jwdHhAeODPeqeq0jpanYnNZr0dNQ4FNdHVrjce1KKYHZm+fxcis/fvjjrVAKaJZCzHUBSSMpfKZCTq6rM/wU7pCwpRVhltJDALk5wVh5kSayq60sXz/MXH72tALWf/9Ov2NvdJo9v8Ghrk8GzZ1y/dp33fvCG2jv21f0N1X0VKvHd2zd5fP8Oi3WHax++rbZtvTKelxZMubUXw/yTXp1aQHJVtYUyF5iy3Esmx8SmZxqj/NVJGlDmMiIPVTmpQc3qJoFFbUOjMHWaVZcr58+x2Jmnt3vEl58/II1CekdHSlt/+MP3lO+ajCYsLrSp+S57z54STlosdeb4i3dv8P4Pb+D7rvJ/L89+Nq6Xj/2pr08tIFmd2RapmSaVYfLF5rtv3lwMThDGEgyfRQZBGiViJeRpSBZJhzVloeJyZqHFI9tQe2AtTVNgWb1SUymAYEmrS0v89U//kgdPt1lcXOS1Kxe4eHaJds1V13r5/n8O4cj1TiWg2c1Ec+S1CGqmOfJeBCXP8jdTc5VrSY6kSoeTeKF+ZCRDIBLJTabjgHCSIF0zS+q9XF7n+EIM1XUs9XM6Zfg3LYtq1eCnP/6Qt94OyvBecZRDlpyp/NEUMfEXYpLxzB6zcc3en/b5ewU0u8Fs4t8UitxUPpv9zW764nh5RDRJgJIyqiUk4ZQ0GjPqH9FqtMiTQLlWGYwISXYYFklIGqmeZxmMJak0DGqOjV/1VVkgCZUEa5XMnNROM5nMxj4b0zffz47/seeTfPuPnVYmTS9ritzw5fezK8yOy3txygIjlb+kUP5YgMKMkindo13IY1bPSDEpfirD1AuC6ZDH9+/SO95XWbotgL1hlnmKqgxKDKjse2nK0UvkFP6S2p55smCz8fz/Pn+vBn3z4n/yKkj5UQZ+1cGoujavX7nM4Y7wG3MWFtf5yUfvsdCRLUkZzWaNdnueZ5tPqNV9ls8squ2aooFKZVTSKhW/umj5kxkqRS3zlm+O98/x/k8S0J96Qyl15NcOSiHlVG2bd99+i4o/TxwkLJ1pcuXyMoYtVV7O+rl1/t1PLQ4PN1USevnyJYU+xkmmII6yFlPiUhJTJquSO/lJsVma96eO8vvP14r/V+/1/ddVzlrLNAV0iQAKXbYoGKSZe7LRpMB2DWwhQuQjLBzy1FUd2SQeYdpCyPKlhlW8HaErCigt4Ji0ipVKCcKg2gDSjytLoT8yrD/54/8LhGSQzYG3j+AAAAAASUVORK5CYII=;" vertex="1" parent="1">
          <mxGeometry x="390" y="288" width="62" height="62" as="geometry"/>
        </mxCell>
        <mxCell id="j9SPHKjD_w-5UFpXXz6L-16" value="每日立会" style="shape=image;verticalLabelPosition=bottom;labelBackgroundColor=#ffffff;verticalAlign=top;aspect=fixed;imageAspect=0;image=data:image/png,iVBORw0KGgoAAAANSUhEUgAAADcAAAA3CAYAAACo29JGAAAbqUlEQVRoBaWaZ3Nc15nnfzffjkAjJ4IECAYRJBgsUqRsybbGkiXbY3m3vKFmt7Zmq/bdfgl/A3+EfbFb5SnPrO2xV1TyaCQxiDmJBMEAIgMEGqlz941bz2k0SUuWy1VzUBf39r2nb5//efL/HC2O45ivtDiOiDW5qak/6RDt9JHb+s619GPn62Eco+vyRFd94yhG0zVM9R55U6y6ahrEaM0+gPmV3/5rP/6ZYT/7ahRFyPG1dyukmi4jQAbSapoCoaFp0qM1YjlrzYmINHVb4AmwOAqbU2PIHYEmx/Om+r3wqudP/m1XAlqAFYvFbwAnA2yOVf2SmnU1tK+OpglM7gYxWDsToqRliBAFfPM78r81J63LJtwXZvDfhqs5Vk0jCAI8z/s6OOnRgiAzoKsBRgR+A9My0TGIRPWiCE0krGlEIlVNw/NDCqVtihurFLc3cd0Eff0DtHX3K5UMAcFsKMwRURgQaQZxFGFZFmEYKtWWwWmahmFI7z/f5PmfayK5lvS+ppah2IoSW0QQ+BhiN6aOaRoQRYRiZ+homqHsLVY/IgChWCjy6UdnuXbhU1YWZujs6uZ7b7zJmz/+GXYqg245yHyoFvk7dqg/AyWz7TiOAiaD/ya7+iZg8l55JocSzM5PPT/FIjmxEDDFXqKQ0GughQIUdOVEZIZFvjFREBCHMeVylRs3rvPh+/+P0tYa+/YMUi9tcPYPv+WDs/9MuVxUzkUmLA49Yr+GRoihGzuOiGdnGUzTOT0f1l97JRMiEpfja5ITFYniCMuWRzrlSpmt/BqeV6e3v5d0KoNh2Mph6CI9Q6fhBczOzXLu3L8S+TV+/M73OXXsEJcuXeEPH33C73/3a9IdXUSxzurTFXpyaV4aHWZsYkKps2maSkpyliYD/EuS+0tAW9+VyfkaOFFDPdJp1GusLM4zNXmHhfknBF6D3cPDHD56jOHRMTQs4jjEMEx0PeTp0xWm7t/h8HAPx4+O0z/Ux/HxfXw5eY9/eu9T+N//C81KEgceZtzg8N5hfq6HdO09SSqZ2LHhph211OovgfimZ63vit1+DZwuOqvD2soqN65dYfbJIwwtxDJ09bler+HaLj0Du0AziHwfU6kBmLqoMtTL25TzIdXSJgYBWxsbTD96yKnXvsuh/WM8uHODK1cuqPf+5/95kHQqSUtqrUGrwe1IsnXvrzm3JP5nwcnceX6DpcUlFhYW6O3r49TJ4zRqVT7//FNmZ2fItnVwJtNOqqMbv1rHchL09HYzNDTEg6nb3BnM4U4c4PaNK0x+eVOp97ETE7z77rvsGxlldLCX3/3DCuc++4RXfvTfsUyTra1tdEMj195OJp1B1/SdBEI88Q6snXgiqcVfagLwmc39iVeKQ4hD8ouPMasbvPb6UYa7XfxaRHF3N1dv32Nl4Qm2/QZB4BEbOqVqjVq+SHlrncdzt7g5GxG6G1x/8JAvrszgmh0cHx3jxFgbqWSeeo/Pgd2DTN66z9nP3uMP79VZXVimvS3LkeMT/ODHb9PbM4AXBtixhRHqEETgaESGj6+Bhf2N+AScHF9TS4lZMoNerUzcKGIFJbyNRZV1BNUiRhwQBg2iOMTSNRpBxOcXz/Hx789SqW1x5NWDjB7fhZ6y6N23l5H9ZRafrFLa2KCwOoWeiyhvzVIrl1hZLvLBx2cZ6xmgK5GisLrIB+9NU4nKvP3TnzHYvRsjMNBU7qcrE4iMZij6RmQ7DkmeK3CCstU0CZyhTmfvIMtz01y6eZdjhw8ShCEP5lcIzSTtEpR1cSQm+Y0lPv3sEy49OMfr3xtnfOIQe0c7STvtDO/Jks0c4B9/9RvOXfmUTM8mZ06Pc+fuI27cmKRUqtNW9/mb02c4c2yCuZlpfvP++3zw+/fYu+8Qu7r3EPp1jCBGSybQY42GqGSsYz0fcmvoXzubLdfZehJrOqGuMzgyxv17d/n4wgUCM4mbTPJoZRs7nWNfpgvsFI0wIL+2SqGwSfuozd4zu0h1xpStOk7CIPRMorSGno3YrKyyuL7Eo9kUN758yPTMqgrqp/Yf5tWJI4wfHKU7bbK0vMD/+cOHPLzzCN0z2VpZwtVCdo+OsO/oMbRUO34QkzCbIaM17ta5pZLy+Rk4ASlHgE6x7rGwtkG+6hEkOlipQk97jtzucdaLZe7Pr5G5M8nekV1KonEUoOUaOL0xvlWjGGsUVleYvHaTGxfuEaRqvPLqMY6c2IetOQzsGePARBvl64/JWQkykozWNtDqG7QnTCobBS58cp5rX1wlqK7jaDXS7Rne+vd/x4nX3iHX1q6yJeVfWqh2zi9q4TObU8CCkJLvc+veA67duIuR7eZH/+k7mI6LZjpM7DnCo+lZpqcfs/rRJ/z4re/L7BB4dUqNVRpRCUuytNBkdn6RizduU6yU+PnP32CgV6d3oIOe9BDDI2cY3btNaHzIyvIcU5M3cOIeVlYWmXl8l82neULtId86OcFrr53Er69w5dp1fvvrX2Fnhnnju98hlurkz6F7AawCJ8AkF4uikPnlp/zx8wv0dHXy8qlTdPcNUKo1WFnbZGO7iNM5SFvNZ2l6irmlFTqSpvJMSd3E8AN0X1Ifl1IxT6lUoW9XNweO7sI0Nyh4m+heluGhlziU2M31+w84//t/5P1Pi3jefpW9/Mu/3qRc9diby/HWD37Aj94+SmHtHkk34lf/9zwPbt7l5YlX6MpJEtGqMl9A9MKlKWJsZv86xVKRy9dvEOgmQ2MHGBjdz2axyuJmlaeFOsVqhGXapDv60ZcX2SxWsGILy3HI0kYqTNJuJtC1DGawhqk5OI5BaFRohBuqFPFLGzzNX+fW1Rluz96ic28XPWPdBImQKlUis4FmavQPdbN7Vy+ZjhRGxWKkvxvNq1Pb2KK2XYFcuzIjSbNa428JSfDJ9TPJSad6tcbs/BJONofuJNko1VjdLPJ0q0yhHhFbKaqBhx9AgEWAgRfE1Bo+3jZsPNqmlt3Gcev4234zFkU+QVQhNj0SiQwbTytcOvdHrl/+kv7+Pl5/+7u8tLudwTad3GAnVscI9vv3KNY3WXn6hM35iPL6MqWtdUn4yDg25g4v0HIeAkSOF+1NAD6zOfng+z7lao1kOocXwvLaBuvbJepSiJkOfihFqU7NjynXfBZW8pTMgEK5QWNDZ2kyT0NbR3dSzC3UqRUqxD1JGn4FN6HjprIUy0UezcxgpkNe++EJ+od7CXUPu7uNfYODjB7JUSTHr//pLP9y4Sy57CtU83NcunxZkR17x4bp7mtXyX1LA1+sIF4EqMA1VTOk3qgrSeQSKYQk2Njcolj10N00umaq/FIqBk23lBtfWlmjYPhkO/sYzmbZ1dfBemWKJwuL3J9cwo8NXsr0qFQoigz8uoXXsDGNBLlcwMDuLDW3hKjCalmjrmtsbZZYrawRJWqsV5d4tPiIwuIc9x5PY6WHcNptYjNE1yzCKFSqLqlWSyXlutWeSS4MQur1BrppkMxk0NCplIsEfoxlSWVs4DoWjVpNDXbP6D6odqB7JTK2wbCTItNZpP40j5lfw48DInEyjqUmw3UcCLL4VR8jSqBFBeq1TeK2NFk3xVq+yOTcHOc+v8lyfpvxl8c4Pr6fvr4uctkU0wubLK0HnLtzgbZduzgxfkKNo9FoKHUU6QnAF9tzcFGE12iAbpBIpLEsmzAMqNVqSM3spEyVrkpqFgQhqVSa9o4UXjFPvbDFk8V1vOVpaqzROdDD/sOwWagTGzFeENFmZDHjDvTAJ6iaaHaIHns09BKYLlXfY+rxLPceTHHw2ATffvMMQz0ddDsJBo4cZ2Bkgs+vTvLxFxfZrkfkJAMa2a0ACqCvApN7ClxLpH7gK+DCfSSTSfXFWq2KHkIinSMMfBKuw0ajzvLMHBkrIqpuszg7jbdSZPiAxtEzo3QNtJMv3aZQW8KwbCw7QRjoWLGLY2SIfR0J/K5pElmxojPCCPLrW7jpBCdPf0u9wwvrVAONcuAzOn6Q1K4x7q1vMPVkirNnz/Jf/tt/pb296TWFf2lxMC3pKUZDRCp1nHKpYQOvsoXlWGRyXaRyPWA5FLY3CQprRJvz6JszBE8f0haVODjYSZsR4pVXqFZXOXJ6nLbhNqqU8eo+WiGJW+rGDTqIjZDA3aRurGG6Ovgu6SCDi6vYs1qkEdsWTludwJ6mrM+yEmzxuLTBfG2RVE+dH/7gICm7xOWr51lfXwYEVKAEITjkWuhHTY9QcU6J0LKUqhlRwMr8LB2dPaTTHewd62B9fZPlhRl8v0pc3aKaX2C0O8NP33yNkV3DjPS089vyPzD/9BbF6hae7WEldHzPY3O5gF/SMDpcPHwabKG7HomUVOUWTuhimRYSjyPNxBPb97fBNBWdUS8HRGEdrZLHSnn09Tgk3Zjt1S0KxU2C0FP+QJyiOJMw9JWjEdZOF5WUQyrhzo5OMqkk2xvrzE0/ZGszjx4FdLSnGRkeor0tTeg3qJS2FcmTMHV6u9r59qmXOXLkOF49ZPXpOmEQMTAwgGlprKzOU6kWMS0dQ9dp1DwM3cZ1Uui6jam5aLFojo5wTlEQEQUacWhh6g62cDmx2H4ZYQGEfbPFOWk6lUpVqaJQHaJ1TYax6ViiKG4y4y2eMJVO0t6exRbWLvSpV0qsLC2wtZHHtU26c21kEzZ7BnsVe3X98nk21xbp7GxjoL8f207gNULqtQZdPTk6uzMUS3kWlubUrBqGTrVaRjxcFOqYegpLT2AZDoZuKQ+txwa6hOtIMg8N27bRjZi6V6HWqBDGAbpQjbqhiNcWy9oEFyG/YRpm0/5azkTOItaE4ypKz3Udspm0uCEK21ssLy1QLRcxNI09w0MkbJOHU/fILy+i+w1lw+JlhXPyPZ/2thT79g2RbXe5c/s6hWKBarWqKIxGo872VgW/rmPEDo7hokuaGErYsbGNBDoOlplQGuUFdUrVTeqNEhhRkxw2dDS1NiGF3Z8Wd2J7yVRS/MgLD2LUTIn+B36IZbuksxkSiSSNhkdZBhf6rK3lFdXX19NDwnWbawWKRNWoVDzCUKhBjeE9fQwM9vJkZo3twrbi7zPZFJlMmnx+i/V8GXxDqZ8k+eKNbcPGsVIg9ILpohs6QVSn4ZUR7ymcqkhJDsuSpF3mVdhvTXGdopriNdsybU2bE4lJH3lg2Q6Gk8R2U6rUEZZYl5inG7jpnEqh5paW1fn1775Bb/+gYsFSSZdIyNlSDdH2KPZJpSy6utsJQo0oaLr8nt5Ouro7KZeqrCzliQMDoU/Fywlha5kisSQENpEvMtGxxF7NCIlJ4jAk2ZBUUexUZla0Tnl8XZjwJqVtmGLDz5aehOXVsJ0UsbDApgOGDYZDIzbwYoNEth3DTWElspw4dYaXJk6o+CcUn2U3KXdJs6JQ2TtoPo5jYZkazRCqkU67dHRkyWSyTE1NU6+HhH6kMp/I9xSF4DciDD2JqSfVhEniIKm6EFcKkBDxUaQKZWHCBIMc0kSSQv0rSbZuyiNZT7Mde2fRQpZ5DMWVRJLHaQaNCJUvJrMdirfU7QSYtipkNaOpKkEgP6RjGJpyBMKQico1GhG+L/EIRkaHGN49xPT0HPm1DcVqq2peR1F8+dUtDC2BazdzWgEVCgUvsxYbaLGBYRqKipcxS3uGQ1UHIkGtaXMtu5NZcSwTQ5wLotO6kqY8Fyo8krVG3SQ2TNBNsX80zaTR8CkUxQ5rhKGszYlXrCt7cdwEni82LDykrAoFDAx1M7xnkEKhTKFQwgs8EmmHzp4c1WqFxaVViGwsPYkjGhRHajXMErsWFfebawmOYysQCl0T4vPL5npDU0cVUsMg5VqYmlRqIQnTwNRidE0tWqkXiSGLwUpu6do2nudzb3KSW7ev0taeYXBgiGQirWKdkK225RL6MaEvE2UQBHVMM6S9PY1hxEja5Yc+tmswMNhHMpVgbmaeYrFKFApnoSOdbFnY0E3wUWos4zAtWzlKGbsSgCw1vdD+xFuKUaYdA1tK0djDNYX8DMXc0TVRCV8tdBAFit8XNZmdfcIf/vl3zC9Mc+DAPnq6epVrTiZTpNNZVSrJml6jHisJi6OJkawiQMYWxAH1Ro0w8unqzjE0NMj8/KJyNpVKg2qlpkKLoQlvGVEtN/AageJQHPtPJSeqKSBbTYlNbsgDFR9MHSf2sPFJmLKuHChJSgavBZ6SqKmF2KahqojClqwDPKBc3qBaLzI9M02k6bTl2iiWCqznt6iUhUTSlDQla0EP8IM6himkrqRLPrEekcu1cfDAIUolj2KxQqVUo1KuKUlJ0G5UG5S3KwReqEJWIumqnLgFqGV3LXDPSp5nN2xTGa7vNdQqqGMZWGo5SCf0A2V3pmmplVDLNhgcHODY0aN8+Mk9vrhwFXf6MW85r+OX4NKnF7h3eZYIh3TWxbI8ZXdC7HhBFSupUfM9ArEpA1IZm76BnErT4lBXnjIIpV7zsEwd3w8pFcuiOGSTaVwnodYhWllKC4M6xxqm6K5ITM4i0dBK0LASxFYCy3XRCg0Cz1cpkWWl8QKTSsOgWPFpTyXIdXbxtz99l7aeDq7duM6DJw+59vu7lKrrPHx8Dzdp8c7P3qB3KMGW5JiGS7ojjZ2eJUyE1KOIWhBjWwGGXSQ2K2QyNmHDJPJ1MMqYdhHbMgnKBsura6qC6OjoVelecyG6aWsSr8XpNfdb7OxmeFGcmvKEBpZrIzotequplD1WM2oalvKEt29/iT86SL24QVd7hv/4H/6e1197i6vXr3D15iUuXT2Po+UYPzjG6dMnqZQqJJw07dmUSu8SToZSOaBSLRHG7aCFxDQwTB/bMRQt6In2JAI0I8a0LBqhxvpmUXnpvr5+Em5S2bdogmRFz5fBxO5eWAgRvZVcLeFYJC1xKhoGMa6lk00kKBhbBF6F0T3D2FGFS5cucuFftskvzTDQ3cnRb32H4986wQ/feoejJyYY2buHjz45y2Z+g88+vkwyY/HmO9/H0UyuXb7KzeuPKKwFEDUwjRjHspshyJBlZPGgoo7NTQVBKGmnjEYnkNTOceju6lJ211LFnRiutK91/czmBKusT0t1bMQRG09X2FxZIZvMMNzXg1ersrW5QdrSyCRdJpcXuHvtEpFX5k4U8MXlSV5+5RSvvnqagy+NMTp8ANc4x60Hd8g/3aStM03Sacdxdc6dP8/i8iLjo3t5af8YBKFyFgnbIgrFTMAxdckiVcrh+RFR0lRpoDy0bBs3kdghnEUPJa9shoMWMAH9jGYQqUkQT7sJ+ru6eTw7z7UvzjMwPEqud4CRgV7CWokHd29RLayTa8syfvgQu/q61LaMO7fmeP/sh1y8cIGjx45Qq1V4dH+G/q5hvv2dV8hvrHLz4iQbW2vMzi7S1d3GT3/wU3b1d1MqLCqV7crmKNl55bgqlRJSPRgpGbukdy6haVEPGipXtaQwjcIdX9FMmltSbJ2fSU5uSCqTTiT4/muvMTDwhFt3Jrl36wZO5hF7RsbYzi+zMjdNNuVy5pWT7B76Wwa6O9QeFVGzTz75lPPnP+eDsx9QLBZIphO8/fYP+fu/+x/KtubmZ7l27Spp6xaaHmOGaabuzDAy3EVve5oo8NlaX6BcaCDeWrygODtJ6WTZStYHGmEFzbCQzEfyRJG0pGKt1vQfzVinwLXihHQQlRgc6KMt20Y2nWVxNc/U48d8eeOyKjFOTIxzYGyUQwf3MdTTpTgMSe+6O4cZHz/It14+xsWLF7h54wYb63mm7t3n/GcXOHJknL95/S3GD0yQTf2WP370Ee/95gOC7grv/uRNMmaaa1evcfXKHQqbHkk3SSoh1Lxs57DxA5GSEFgeloUqw8SMpAkgqbybwCSvbEI1ZWZaTa5l1TjyAxKuzcThg4yNjTA81M/s/Lx64cjIboYGepVrFpuQ7FzelskkGB9/iaHhfk6+fJRbN29x7tznfHnnLr/85S85dnSCM6fP0N83QH55je31AgkvgRcFvP+78zhWxOTd+2iaz6unT3PqxCtIjN1YL2K6FgkrjW6jHJ4ZNPeuCBhNVQxNBBLOLEsIWvn8grdsARTVjGWTmvAqhk4mleDwwX0c2LtHlRiJhNACOr7UX3GgrtWOIiNSRWU6leDo0SPs3TvKS4f2c+niZT764EPm52a4f/8+2XSGrc0t2traeOedn5Ad7mXq3m0e3b9LyuhFNz0mXjqGa6aIPY/ejkEsJwJP5/HkAxbnltiV6yCVTBEKmGdFaktyLSRfWSuQ22proSFVkngr2SEUKa9lm5qKe7KZUKr0KAyVrstGG8lXJYUSelAmRQrKRMLhyJEjDA/v5uSpk3xx/jyfff45jx4+YnV9lXQ2RSLhcmDPOKePnWZ9ZZnr1y7z8SdnmX24zNzCDAcmhjl8cj/Li3M8nHrE1L3HuLRxcOwwfQO9Kq61NE+FMpVGPgdn/OIXv/jF8480N6mpXVlNeFKiKx1Wi31Rk3UWz7qzBUliT3OZLFLEjFTCinmS8kmWttraGBwaZO/eMXbv3k1nV6fazbe6tsrUw4cUyw36e/oYPziBX/e5fvUa9ybvMTs3g5t0aNQDrnxxm8nbMySNDt763rv8+M1/x+6BvUjJoyrxZ3s5/9Rral/dTKock1BssuAhla/sAxMDlfRsJ1w0d6fJE+kn4GPCIFDerRlzpLxp2rLQB9IkNapUK0olHz16yMcffcT5CxdZ2yiSSWY5tH+ceqnC5NRtDMdneF8fuD7FWplUKsvpU69z+sR32D96gKH+QcV+KSciNaYaiRTIzQq8aXOyQa/pYp4JzxNgKjuThzsAxXAFpG4Qh82NhZoUrS01EG0U3nDnLTvauVN+iC00A63aKqYZ1L2G2qwzOTnJhYsXuPDZZZZmnpJ2UxwaH+OHP/keIwf6mV9dYGltnX37DnN0/CT7d48Re2BaEhmEHpSJbebFhmGpXxdgzYmN0aIoUvgkwstMiOLJoMW9q92xAlCxS6J+Em9knyQYlqWkptywlEuy40fAKogyGSJueZfEItkjJrV98/vSN4yF36wzvzDLw8nH3L19H8d2OX7sCCfPnMBO6tS9OnUvpD3biVSWjmkSelKkiiqEyhykAG6FAEGnPKhStR1wQso2M+pmhaA6qw6q907c0FQFLuSLrPJIkuo1PEUlyA9Ia81Yq9IQ5+LLBlGtSR6Jd5N1dyFNW2WKLL5EQUihUFR23JbJYrtiSzveb6fKFokIOyatNVa5VvtAm8NUz+RfE+yOt2zZx4vBXF4ureWFWtcijZ0H6lKACFA5y4DlLDSENGF/jbhle81dsKLaQstJk92xAlQzLbod55mdKtpux2ZlYmSwzQmTorrJS8q4muNujkdk0RyDerX6Z4rUpJMcL14/7/L8qgVC+snAxBu21EBmU5qc5V0vTpRct2ZT+rSev3ivBaA1mdKn2WI1GXJfflP6yY5aodnl3vOJfJ6tyH1p/x8/KLNsSWkmrgAAAABJRU5ErkJggg==;" vertex="1" parent="1">
          <mxGeometry x="730" y="110" width="55" height="55" as="geometry"/>
        </mxCell>
        <mxCell id="j9SPHKjD_w-5UFpXXz6L-23" value="2-4周迭代" style="verticalLabelPosition=bottom;html=1;verticalAlign=top;strokeWidth=2;shape=mxgraph.lean_mapping.physical_pull;pointerEvents=1;rotation=0;direction=west;fillColor=#d5e8d4;strokeColor=#82b366;" vertex="1" parent="1">
          <mxGeometry x="532.4" y="180" width="171.6" height="174" as="geometry"/>
        </mxCell>
        <mxCell id="j9SPHKjD_w-5UFpXXz6L-25" value="" style="verticalLabelPosition=bottom;html=1;verticalAlign=top;strokeWidth=2;shape=mxgraph.lean_mapping.physical_pull;pointerEvents=1;rotation=-210;fillColor=#d5e8d4;strokeColor=#82b366;" vertex="1" parent="1">
          <mxGeometry x="650" y="123" width="80" height="83.5" as="geometry"/>
        </mxCell>
        <mxCell id="j9SPHKjD_w-5UFpXXz6L-26" value="团队" style="dashed=0;outlineConnect=0;html=1;align=center;labelPosition=center;verticalLabelPosition=bottom;verticalAlign=top;shape=mxgraph.weblogos.myspace;fillColor=#003399;strokeColor=none" vertex="1" parent="1">
          <mxGeometry x="597" y="237.8" width="53" height="52.2" as="geometry"/>
        </mxCell>
        <mxCell id="j9SPHKjD_w-5UFpXXz6L-27" value="产品功能细化" style="dashed=0;outlineConnect=0;html=1;align=center;labelPosition=center;verticalLabelPosition=bottom;verticalAlign=top;shape=mxgraph.weblogos.mind_body_green;strokeColor=#888888" vertex="1" parent="1">
          <mxGeometry x="511" y="145.7" width="51.4" height="60.8" as="geometry"/>
        </mxCell>
        <mxCell id="j9SPHKjD_w-5UFpXXz6L-28" value="评审会" style="shape=image;verticalLabelPosition=bottom;labelBackgroundColor=#ffffff;verticalAlign=top;aspect=fixed;imageAspect=0;image=data:image/png,iVBORw0KGgoAAAANSUhEUgAAAEgAAABICAYAAABV7bNHAAAgAElEQVR4AbWc95Nc15XfPy+HjtPTPQEzAwwyQIJJFIO40tpb8m65XOV/0r+6bK93XWuvt1YleSVRgQEkkQOBCZg8nbtffs917ptGIClqZGsbNeju16/fu/fcE7/ne1tL06LINMgATQNdPefopOqPIkPTdApsCuQhZ+hQaJDLyZBmGeQ5ulGQpQnjcZ8oDvG8BrVaC00rKIoCXdfVn7yWhyY3/DM+EjIZDhp6+Vxoak7Pb1He9vlb1DgSCkJyTBLNJMdCk28XYFBgylyNQs2zfJbXmsw8R11ATQ4KkYu6bXl9GYjcL89ydSHD0gmnYz795Dfs7m4znYxYO3+d1268w+LighJQlmXPBfTnFo6MSidXwpGxKyF9U/6zQb8QkZqjlsYYOuS6gSiLzF7NrdAw5YXM3cwLNDmspJyDpnSp/PSVlX71ruosTWfQPeTWzU/5xS/+GdMEz7EYjGPGQcqHH7xPp9NRw8rz/M+uObP5lnojE1A6MDv86vNLw1dTVcphQGFgFDqmpilrEgMRfTANLVNCeSEckYlOoYSijoIuJiKmdvKtQiu1U0xS18jzhGcbT/ji89/jWho3Xr/KYnuOz+7v8PDhQ5YWF5ibm8MwDKVJYmL/Ghp0MtoTgajpv6L1r0pKPi8VoTA8Ck0MSoRUYGjl/JRb0IoUjRi0FIycwoRMN0h0g0jXCXSdGI1cm93wxW3KQwVFknB0eEi3e8zVK5d547XrXH/9OjduvIGmG2xsbDIej5VQ/jUE83xE4lOUX8kpyNSiysIWhbwvjePFc1G6UV0nMR1S3SQTwWg5epFhFilWnmIqA1NqJx/qz03rRFdmLlk9l761QJcLKXPMS/ssEtJwgBYOqesx1XyCHeRUrBxdzxgOj5SWyURkwDIyTVdOrZyPmuGJI/x+A1Ea+Fwg8kKNfXZEQo1yJqUFiOMUiWgyZnkh3kUe5ezkiJKSJiZZiq4URSFfUVHLRDNffEdUH/25UMoPZv/r5AXkhQhFXkukK9DyBM0saDWrmFnA0zs3WakUFHWfR08GhNGE9bNL2JZOloboulmGy9llX3pWQpdrYrx09I+8VLOUc8RsZz5URyvEr5TzZxZ0lHeRc+X65UzV1/OZ4ORoKbxcK4cpo30+gpn6vzgy+0iO6EpzMhGSGo7+XPkKPcWtNcgMm9v3H+E6Fu1GhV/f2sRZusilSxep1qqkcYamy51L7Zldffas5ldG2NmhUz6Xq68mrhnl9ZUGnMxO0pQifWmqEqFLQcgNvj3fk9tqmpjY9z/KnEXWtjRBmZtSZF0jFWGlGl9+douPf/FLDkcJSeHy5GDEs6MhvVFIrTphb++Ac+cmVKt1VNKlVvu7hzVTAvn0uXIofZ8Nunx++dCLM0tHK1N+fvXnL+R7L795fvXvDRjfK6BZQieXzvNM2bI4XbEyyRfCOGN7a4v/8nf/wG9/9QtWOi2W5hfx5peYb9Zpv15nvzfi008/I0vhww9/RL3RQuVDhf7SwF4MVu71Ug6KVjq+Uiqz/189fXYUMXr1UN85EYY6V6KwfCLH5IWoqSz5iWm9ksY8v5x68Z0Celkw8lrZdp4oM5OserY+UZxw78Ejvrh9j944wq/E6FbIXFiw3lll/eo1plHEwwePuXfvHo1GkzfffBvX818axcuzLV/Pos7zk14+RaY3czXPTygnPhOQJlHrFRWTxPFE8q/okQhIsu3vNnn5yrcENBOOPM8WTzLUIgnIcg1LXAgGlm5JGs1oOCAMQyzHIck1DntDonsPyTST2sIy6xfOE4UJd+7c5e69+6ysnmV1tfJ8ai9evJCCrKxyVapkKDVBPi3yMlyX35GJSb4y+544XQkipXMto5a8z05MVRxzmUoqE1ACFAH9YeF8S0CltpwMSGmO3KBgMuxzuP2Qbn+CX2tQnWtTa84TT6aM+0dILlXkGaZhqCEc9frcunuPVqdNmCTsPtvh2e4eumHzwx/+kNXVNV7OqGWi8l7UXxJPiYxFViAaGsexGoPtuPheRUXOotDUxLNMtFt/noDGUYLjWORkTCYjsjyhXmsqLREx5pksuoZhSBRO0CUBlsU/EeqLxXrx6lsa9OIjWQmN6XjMwzu3+fif/47+cIJue3i1Jp2lM0pIOxtfk0UBWpaoesY2TfLUYjqdKI3pD4YM+gP153tHTKehukWSJFiWRZ5lmFKbzFxyAbqWMxr1eHD/IZtbW+imxdUrV7l27bUyv5FIJaoiU1fCLV/LAuVpxPbWY3Z2N0mykLW1ddZWzmPaNSWcIi+UgJ4rnhLQH87svyUgWUmpumerOplM2NvdYevpE6qNFuJtd7Y2ePrkCaZXoTcYUfUsDM1TGaih61R8nySO2NvdJ00KTNPAsmyVA81MQsoOuUdpGOVEZcJpmjLu7vDZJ7/lzu27jCcBGAbjwTHRdMLFK9eo1pvKyZqmpbQjCCJsyyIdj/j66QN+8/HPmYQ9VSLd+fIm773/l7z5xvuYVnXmltWCKO1RYv7D/70ioNLvvFgZEZTjuLTbHRaXziBFyXga0ev1GAwnJJqO5/nUKj6ObSslEI1wXQedjGmUKPWV7+d5oaJXEARqNHLtUrfFr2jKv0h2LZ8/vvM5n3/8fzAdj48+fJ8kzfj66SY//9k/qZquWq0q31GOF7JcMmXY39zg41/8jMOjLS5dWcWv+3z9eIvPfvcxrlHlyrV3lNaqAWhiZpIbzULOdwvpFQHJKbKq8pBQLKtcr9e4dPUak+4HbO7scnjnLgeHxxwcd4nTHL9SxbRsKtUqnueqRFDUOE1zlBnZthLwcDjk4OCA6XSqri/3KfK0NK0iL30S0O/3uXPzE4p4zI03rvPeOzfAdnEMg7//h3/k2fYGC4tLuNUmWZaTF7qatGBST+7f5cm927z73mu8/97b1DtzLC0s8ouff8Jvf/Mxa2tXseYa6v6zaK+mW+pEefwb/78ioJlwZGVE1eUh/qHVXuCdD37MlTBi7dI1Vr66zZ1799nfP2QwGjMaj0kLTYVvyzSJwoggisrBG5bSQokWMqHS34jyiMMsnaw42tJhwng0YmfzCfPNKqtL82TTIY6hsbLUwTUNHty9y9LSKuevCRAn7qCs6zaePuPhna/IwilrZzrYZoZnFpxZnMdzLbY2N8jVgiAYoCqXVDqkjPQbUnnp7SsCkgHLQwQl2iMPNRFNZ27xDHOGid+Y5/qNd9g/PFIacef+Az7//CZPnj5hEkZIKSJaItHPdmzEn4omRVGioohlWqRJxnH3SOI2lUoVz5e8qJyophc0qzZxMGTU6zGutxgNQ8JpQHtujvt3vmLt3Drnr1xD022Vk03CmDu3brP/9Gt8S+qwhMP9XSyr4HD/UEVF29SxJcLlpX83LMm65bXkSKXVqAl/479XBDTToJcFJOfnAiLpJmmW49SbNOZtOssraHnGu2+9SVPPeXb7JnkwITBsFpdWaMzNE4cOUd/k4YOHbD67w4VrFxikR/z3f/xb7t+6jWvDhfUzfPjBhywtnoeswpx3jub6G/z2539L4+6/sDg3YTCJ2R9bWM0Go6OU45FDHJjYrkYmSIKe8HV3h11/gfOLPju7R6ymPl0sHj7c5fGzIZeuvoPp2uhmhiYQcVJQ6I6CU8ts/buF9J0CEqGIkGYaJY5M0i3BS3TLPDHfgjSasvv0EePDXa6eXaFeb3I8DFhYXiHXbQ5HOaNBwORog/5oH904w82bH0Ns4hk2DrDx6BYmIR+8b+PYq3z5xdfc3uwSWg4xY7Z3P6cfhIysFSJvialhMo4hmKbYjq7q3tws6OcxPb/DpXaT3nAPN4/Z35+ysTti6zBAqx1z+95dLq8tUa1VIDfIdUfNxVCx7RQC+oZ2PX8rXxWDM3QRTlnBGGjs7e3zP//xf7G3vc27P/oQ2/X4/NY9xmnEOJ4ySgssz4BJjqUZHG5sEe71+Lc/+ks+fPd9fN/h7t3b/ObTz3m2E9NoX+LmracqWr790b9hZXHK3uQBPX1M5o6Zpj3G6R7d3mO6+09o+GfRHJOj4wGTcUy91WHp7BrzSR097DENYuoLDS4abYbjiP/9s3/h8dIc169eYv3SVRy3QpqDJAt/6PGKBv2hkyQZ1zKpb8RPGCrsaoZOmheEaUqiwzAKScKAQRwwDAZojodZd/Ftk9zw6Hdz+pv7XH2jw/sXznKhUYVqDfPSdb744gG/+/wmteU+nbWLXL36GsudnCS+Rb+/S5ok9OI+sabhtqfsdW+zsb3C+lqbaWzw8O5T4lBjaf0CS+cvMs8IPehST3POVBY4n7tsbe+x9egOd59ss3d4yPX+lGtvvcP8fOsPTVsdP5WAxIkVWQld6raOhHGBYFvz87zzgx9w8/Oc+48fMZxOiAs4HE1oLSzRaNbIgymu4+DpHsWoy5JfwU+nxEfb2FELT7M4e3adoV+hsnqG9TcucmZ5GfIDegcpA6dgamdMjRDdc5k/b3F0b4Pt3hNw/opJN2Lz0TOqZpPm0gqpW6MfJthOC6vu0Vg6x5xr47XaVKo+ZjTk6/u3+Nkvf8Uk1/kPf/NXL4DG7xDVqQQkvkjMTFXZ0i8SRDGHRr3Bjz74CN+x+fv/8bfce7CJ16gTjqck9RqW1VS2bmh1GtW2+t542GPj6V1YXaKRhxwEBrqtcfbSCtXzC2jVEUdpgaGPCK2UQMuJiwzLF6PO8edNduyA42xE6lpkWsHgYEDFaWBVm0yw6E+lS6PjFjp5ouPbGqbnqAAz77WYTMds7u6zsbWlfND3BLFvV/PfIUSVzGnGCQYp2L+hq2LS0Aza8/NcXF+n4Xoq1b947SpLrZjdoyOGjsH5s1eIhlJbJXTqNR7tbtJ6lqPVI4x4xNZRzFFukdgVdKmv4pwozIjCHpbWxRVTzRrkhk6YmAyzhMyxGBsaU0xyE4b9kWo4pMMRjZqnTDrLdIpRSnjQo+p7ZNGULM857A7pTwJsv6qairLw3+2eS0l8rwbNIpnCVgRh1aXzKPDlCSaTFxRpTm9vD7fI+fHbb/Hv/+avSYucj3/3Ox7vHHG4c0wSaCob9toVzq0vUixmbBddksmQbmYQ6j5pNqIYy2QcJsNjtCKjUrGwzRrkDlGaI5WBQ8JweMjdJzv8w69+Td7VSYuCimMRRRFhUqCZFaK4IM8C6PWIRgOSYKSSSJKQ0Xii/Khhqr6pKoMk/5qlOTMlEcv5XgG9fKIAAyqxUrZW9sO0XCcOAp7cvYtX5Hz4k4/48I3r4Fisdxr8p//6M+5t9JhvL/LuX7zPyoUG61ddUrYZjXeYBhGJWRAnY4m6JIlOFrs0jTGO7WPZDmhuWeSGMeE4wAkzWs4yo+OEX/76Mzr+Eu2zyxiGw8RAwSMCq+i2j16kjI6fMRz30NIASRYlox+PhsRhqKATAVnEZchDBPLys7w+lYBEspIsysWkIpX3JWAn0F7OoHuMlkecW+5gFyEaKWeXmlw6v05stTh36TwX37xEddmi8LoMoynJ8YBomJEYMXlU9uRyzSCJE+pZSrPmo1eXmMYu02FG2B0Q7AdkQ403z75JUjQxnTaLnVVc3aB73GM8HZIEPqZXR88z4lGPycEWVnDMmXaDRmOOQZDwaDxQHALbFPzqGznfyXs11dMKSPWxpGddFjFohaaqZxGWpOyOZzANR+wfbVNpFKr2CeOQ1uIcry+ssXx+geaaT+xOCLWQSZwzAUIzp/BTTDtVpYkko2Gk45k1qs4SsbHEeJzTP5yQDzycKMUmZ765ij23RqzXiHON0XRKomf4ujT7EookYjoZEhw8w08GXOzYvHnlDE6lyd4g4vHDx0wHAywhU5xALDPzUijDiXRObWIljlEotFAAddHIUiklw07wGz6JkfDVw5s4zQzXM+n2jjgOW5jtGkYjphdvMhgdgZcxlZot0xE8x9AzVclHUar8R5RrRH6L/rDKcGirP1ubwzZ7RGlMs+Hjuh6ZaTLNcqKkUNX8YqeDbhoM45BREJOFE8xwQFMLWK9WWa9p4Bt4/jyrkm0fHmNI9+GlhwhJhCKY2MzcTmdiytNLX8xS3VfJPkfBlOnomKcPv+DR9hNiPWF3uM/mcRPT1hiMuhwkOVbo44YT8nxEd3KAEQi9RMcTgM2WfAqCuCQ5TGJp9JpshCb1zMX0FmhWF+k0PbL8EdvhExJ9jNmYkEq73Pap+zWapo2va0TZiDCJ8EyDSrNGFjjUBwFOEJEeW1gCC9sdTCmSXQfPlWJH3ETpNkR7xA2JAgjcI49TCUiuMesUpHlOdzDi6cbXbG3co3+4ie5ZXHv7dUwroPCgN+0pjcr1gl54jD3oUm9DVowpQptapYVh2GpwqRYRFgVJVhDnBpbpk5uL+HOXqNWvYGc16nmBMzfBOXeBMO+TVhz0qgOmTzqF6WBMFkcMkn10Z47FdgdXKzjajonGXWJHIxqa6KbLcRSyt7OtLKAhwJs0HsZjHMfBtm2VwigfK6jqNwUkajWzRZGevFfH0InTjEIbsX24z+8/u0W3OyRNpwq8unDjEo05g0myzd7wPuNRTpDCNNkklAEUFaysgWHmeLZPpWqj5w7h1CYcuCSjJtXYou3NM9dY4pz/PrXaPLqTkRV9dMniOzUa9R/jxSm5liHd3P29TfLhCEvTGR736MVTmotnqTYqHPZ7HAUTCtH6KKA/OKZt5Dx9NuBw9z65scjBYcRvPtvk4d5jmr7PtYtnWT/TwdKlbyPzNU6nQYKY5IVGEE/57IvP+f2nX/H6629x+epVKhWBjDM0J2EwNgnDjNDPCeIczQ6x0lhFwCT1sAxPIZC+VyWeGmSJSRZ6VDSP5flFltqrzDXm8eOz6HpCmh8TaxNV62VmA9trocUa+fSYwdEj4sMNmo7JSnuJiTvH067GeHDIMTCOEuxKlZA2e8ku48NjmuM+3aMRaRHRG4341Sdf8Zt7z9gd7tBwDXrvvoH3ox8okK2M2dkpBaSYYSaGWedoP2TYz2jNL9Bo+ST5HmE6Jg9ipsFAFZbiY2zbwipcpllEnthksYlpOmiZTxFXmA4Sikh6+E3masu0m2fwnJpqZRfZFKwC0xICQgUtlW6ui5GBa+WM0gHHB48o4gFnVs5zbnkZTbMpNrd48PQZSRhS8WqYXpPY17FyBz05IpoOyG2oLtWIJjVyz6PWbnFttcnexmMeP3nChdUF2q0mrmuI9Z1OQEJ3kdZLJiSjvEEcuoyDiMP+NmH2mIKxAtOm8UTBIbbjIzmGVjik8YQ4yJhkkBoadq5T2Bqe3qHSbFGvdGhU5lUtVWQGQRZi+8J3zCgMDdeskmc20cQgCTJsV0fPp0SjA1wmzNcMqrb05XQ8Q6PhuRi1FoVXR7NtiqpL1e0QjnfoHe/QqBo01jtM6ZA7i1SqLYhHxOGE6eCI4SQsaUC6jV4Ic/FUjxRp0uWpjed0MK15dSE/OCbVtojSHuKdddPHtutouKp2ymKx/4JwElCEFqZbw2ss0PRWma8uUffbWLqnNESLDBzLxPV9DCtmGo6ZBkMsx8Vx5zAdR5UUtl6gZwVGnlFkE6LpEbFnkiYa0v6R0tz1PTS/RmE5JJlNrk8IswF27QyN2hxea5UxDXqhQxzn5IJXuVWKeIrt+ZiWoyp8QS1OISBJfKQCKwFyXfdIM7MsE/IJeBOyYoKpOXiyapbLOJoiOHEwzEkmHr7ZoD23Sqexyrkzl5mvLqOlgipWsIRZqheqpW1pwpJNGfX26Q12GQaHmLZFa36NZn0dz6tQJDm+U6PdWuRob4/NnccU+Yg0yuhPF4iFp1pkhEGoGBaqC2t71Frr1Ko2muMwygySyKSwbEXoEh6ZcHqjVFBTaVgJ7aVAMK9TCEjqkxhNjzENH13TSTJNJW1BJvV0gERs26xQrQibtcJk0ieejNESk/n6Eu3WMmvLF6h581TsOQzxCehIjBAQwzYLxW1M01Cx0Ta/+oo47ZMaYzRHR09SzNxlrnEeQ9Op19ucOXeB48EDNo62iArhB8R0cdDdGmkSszvYJ9VcmvUmK4stOotNfNtgGoUK3BOuoUA2SVpQmCaxwNRCWTTMsvbTMsUsOYWAxAaF+hKoEt50NEyroD8ZMZ+mmEmOa7v4bgdTbzMcQjhI0ROfdqNNp9lhrtmh7s1BZkFiqvWxDUMxSikSTCPDsjSm0yN29u4xfPaE8xeXqC/UCPKIo9GIve0NGtU1DMlVPJfC9TDqNeLUZmc6Io5TjtIRDhZZ3iPUpbmoMYhTGpFEWmk9C/pQKNDeKEzMLFfmmkiUVmipqdrTiuQlvY7ilE5ammtSgBbEWFaG6RREUUiWGipbTQIdM7ZIVWfUwjUqzNfnaNXmqPkVPEtMw0ScsPyzbBFSoRqHup6iG2WxGiZdjvvb+OaUllvQadVJLYswPuLZ0YggCEl1g96ky1Ewwp6fZ66aK41NxxFFVker1TGcGnV/gSS1SMOESZSSJBqmIS0hCyM3MQUvzwSP1hDPpfI/yaAFwlFJoLiWUzDMSh9+wqwnxXIzDCsjjhMmI53c9NEyHbvqYzg+vtHAq9RpNhdxTelbZRSRSaZMSkeXfpuspJAGdNHpjEwKh0wmEjAJxjTMgCQ6UtFSF1Sy0EmSnMFkQp6mDMI+qa3jzS+QTyy0ooZj6qzVr6F7VSLNJaZCOs0p4kwVwkma4moWunCh0RWLVSp+XXhPCjEroQ6FVijdK2d+OhMTbnAh/kdWP0czEuKkIAwqmM4inlmhYq/TrKzgWhUsy1M+Q9HQFPGzxI90oQ9qOWlWYBpSh+WkhRSrAm6JmttoVoVp/IRRbKEPLYLxkO4YDK9NYemMRIhpQm4apLlNmNfx6ossNxbBahPmcDgJSeKcNE9LIpUuQGWq+E2KZSs6ItGQ9KTNWiKA0h9Tf0qDRGCn1aBCijohgWuEqvCM8P0mtcoKFR9q3hwtfwnfrmIrEqsAX4mCNIXirxu6Imcb0iZGBCIYQMlTlgGJo9ZND7eyQGvhAscbv8ccdelpAcfTjGkhgHyH1IRnO4cMgx6mn9Kab7K4cBbHbmDpFYajBD3L0dIUXRHCU8UVKgmccr9cLYrwhwotJdczBdWWgpF6QQrUEn+fkdJPpUGaePzEpCvV+9MnjEZDVi5dZWnhskLpanYTF5csCcmKENvIyIThKY5PWsGSYArRQMtVR0SZVyZQg6UiRpZIYuhgGC0qlTN0XZ/DUZ8iPmaQJsT6iGTQJrbm2dw+JMlzGi2P5cWOAswEmO8ejdFDMaEcMzeRfCkmVvCvBAKxbNFeEU5KQqJl5Eau8jspK6QYF6qhpDMzzvTpNUjiWJIx7I85PDhgOBgqk7AEspBJaj5FrlGkohlpSdouNJVTKOEIhiBsD/HFkluovrgMtlBqL+hSOo0Jo4Qw0agun2MwgGk+JrEMRqFwho4YFfuYXg29sEhzjfFYI4p0bGGZCWXXskmzVO250DLJbJRClBxEcaOGjKkkvyutLcA2dCSKKQGdwEPKGwmf5pvV/MuVvPr0uXdPMeyIuUaVc2sXuL85YPPpJpXqHLW6JIERFcfEtcWPSH4hSZZwdlLVtTSlIyIdi0xSME2trmAu4n+mYYBX9RiOhwhZKyxCrJWLGLUmaX+AaJflOmhuB+otHKNBGEEQTpmmOmmmYRs5tpkyznMS0QRTQ0KTKa3lLFBbnKKsoObbpMFUtY9s4TFlKbZuEKQiIjEu8UoGkbAwFWB/qmJVKLNiAtBsNTl/4TLz95+xP5zwdHMXz+9x3Kyx0G6w1GlR9X3FEZLJG4q/kyjZmLpwCcXZ54RRpFhnhmkoHmEYFYzGPaIkVilAXLgkegXNtWm35qg0JEN2GUU6QaqRp5niCQiyJZ1eilhdNy5yMmG4KgaoLIX4TQmamgoMSZYqONixahzs7nH/1ld0hxMqzUVMzUBzXZUPiQbJeoqGn8IHld48l2a/aWL5VfUnoLIQFMZRTrBf9sEn04TOfItms47jeph6TJ7HKiWQvViOJRCroTiIQs40TZmExnQ4ZjwcUugFjlMjneQ4lk91wcP35zDsOsOoUPmMFKXSEpo5URG4ZHTKLAQyPWFEqfdqX4js3oGqFLGCXk4nbG08ZePJE+7evsPuYZe1y6/TbtbUNVVwUe6zZL2dQkDC7Je6RUFIxIL8pajaxRLWqWGRCiA1ChmP9zg4HrLQWWC+06FTM/ENq9QoYZ0FiWq1SDQT/pAWJWh6zmDYp9/vlREmT5TZNppNRS4IwpT+WPyTlAGS1p0IQ4lW3Kg4DpmRcAdk94isvKz9Ca4sGpWlTEdDJtJY2HrKw/t3kTEszDUZDsdoQqw6+SudtbBi5E6nDPOyKupPeIYqPGvSTFJqa4jnN2yl6mka0xtMmYa7HPbGDOZcFudqNJtzuLajIoiouV6AY7vEWaYSv+64LG7TPFIJ4+LSOSqVOeUTcmkjCdwibkxtbVP0MJWjKC1SWX5ZTJ8wpZW5qbJCiStT7Ns4mHDz418Sjvp0WnO8+85bHB4c0ev2KJKYyaCPZwvJqmwmKnqxbp7GxMp2j6TgQhdTOK2hK+eWiOb0ekJNpVar4rkCLUjWm9HrDghHXQZ9n8WFlNZcC9exsSwX3dBI1d7WIVEyZmu/iybFoQHhNCZJpT9mlK2gTMfQXQxdKv1QZdWK6y+qIlqo1lkcTQmRSqgW7RDYNBNTFM1IE4739xgNerz7+nXefP06S4sdHgJVx+LJ/i6+Y3B2ZZma7yvAXsYn3drTmZh49JmdZxFaHmMUCXk85WB7iygIaM01qNcqzM93sC2bJBXYNWW/O6Y/2aY9COh0FvDEN9mG6m7uH+wSxiN6gx6NhoeweoVzOA1SGnULwzLRQtk0LI5eU4ikIZl3FqpCUrRKwAnpSYtQzDwn1SQrT0iisCwpxNiSkCQNqLoOr1+5xMVzKwjpvNNq8trVy/Si2zSqPpcurLMq6KRUnorN8g0BKYD+hOU6C4Y6izwAAAkMSURBVPPqmALzZfMu6FmMKSz1LMBIpjiErK62lQPeebbFtHeoOpidxQVs11dbEobTKYPxDoMgxTQs5R+EUDkYjSi0GMOqUzgek3iCLXyiXHhIJpqwM3JNsgOlldIjkoRTAVmSoktIF2K4Dp4UwFHM5qOvuff4Kd3BhOuv3cARKrMptZc8C8pZblYWvGeh0+EnH31AY2kRz7K5ePE8i50WEnE1yy6j70wQ3/csDk+IkZpmIe1tS8+xRIuyKa2qxU/ef4tza6t8/sknPHj0gO7hBlnYxawvUplfplatMhxNODruqegmXEcJx1mhU6nW8asWlmcyiWTC4lTKzXCZdFIkWTMttChXeHeWSCIqbrmcqGNbxOMhRwc73Hn4lM1n++zvHLC1e8Byp81yZwHXNrHFT0qJE0fKNJX2uQ7n18/RPrOs/LyvIp2Guoe0SU+zX+y54E52xEijv9wInKAVYmoR83WbH717kUtrLR5/fZmbN7/g/oOHdI+3GU5HdNrL1GtzTIMyoqSpErmKSoVmEsuWWSlcUw3Zk6H2bZzsM5WRm6auiOphkpEUhqrshdAl2hBMJjy6dZvNJw857A+5dPEKq8sr/NMvfons2hA+Sv/oiCIak6aRMmHJn2SBxHcK3i4JpKmJTok5lwsgmbk4/VP5IJUlStdRNomdmKAUgKaBEpZWRFQscJbn6LRqrK8u8GTjCr/+8h6/++w2D/e2WFw5T7WxQMVbwLZMZLISjAVCFUZ+HBYk4hgVJTjHtMT9yj0TFS3FHcutZeAyKdkBkEUx9+/c5YtPPqXd8PmPf/1TFldW2do94ve/+z3JdMKwd8TGwT7JuM/FtTP4FU+teSGpvDxEUFlaZt8CkIl5yY0kUTwdJi1XEdp+IeBA+XsMeZmZykXEOaqcUyEIGVXP4Py5FZaWW5w5u6Ic4le37rOxfciucHU6UxqtZSzDIlPpvLR7ZZA5mWA3Am6lAmGl6Lqlopu0hMW0ZYuTwpdkF4BZRkLhUudZyls33uC9N28gu9pGo4BOs87Go4dYtoVrGVxdX+PGjRtqK4Pa4i4JqxKS5FEl618gWKkdBXZVwNlpuxpS36a5xItCMerDNGcUBFijEXkcKiqusLeKLMIwJBRpOLbJpXNLii1/4+olbn7xiE+/fMjOwYHKyVoLy8oRC/s1L6QHVTK8RbGl+k6zWG2xkrLBtj2CSUS332cSRAqzsZXxpIr/2Kw3WFldURotrmlxvsWPf/Qhv//8S0VNPr++xmuXz3N2qU3F98ptD7IzSJgYsshq67hoaLnBRgKBPL7lg5RqqY9e/CfHylxD8FmNdqPKfMVmMx5DZHL1/FnOLi+pc4SxpWqfPFekJKHXuq7NjctrrCwtsHZuhf/8337GzsG+ypYzXaPX20HXc+bbTWxbx5Xs1aqogOBKMqplHOw85vbdh9x5uInl1Vhbv0RjoVPu/0olSSxRQgxLRdpmzeLH77+nqIHVeo25Rg3fttSWBsXckK0PEiFPsB/51QVJDEVzVG4u7IwTUz6VDxIjEqqIqOTltUV+/IPrVPVYUWjf/cEPuHh2RUELpm6TnWTKgj0L6F1II9DWaTctrl09Q2veZ3O3p86bTIZsbt3BsaXtcxZHr1KpNijwKAqLQPzHrc/YevqQwWEXN8jY2t6gVqly7swynltjEvSVUJIoVvhSoWVYpsZ8w6dVPzdzmeVef1k9mfjz2l3eyo+XCCAoD5mpBNHyDFGNUwlIWj2ydUi2OjVrVT764H2uXrqA53nMtVoqDIvjlJxJbvJCE6U2knxFqm+BQEo8yBBcJpP9G0IRtuh0Kso893a7tKrzKsweHuyzc/8rNu99SWeuyoc/fIfutKD789/iSl6jwdHhAeODPeqeq0jpanYnNZr0dNQ4FNdHVrjce1KKYHZm+fxcis/fvjjrVAKaJZCzHUBSSMpfKZCTq6rM/wU7pCwpRVhltJDALk5wVh5kSayq60sXz/MXH72tALWf/9Ov2NvdJo9v8Ghrk8GzZ1y/dp33fvCG2jv21f0N1X0VKvHd2zd5fP8Oi3WHax++rbZtvTKelxZMubUXw/yTXp1aQHJVtYUyF5iy3Esmx8SmZxqj/NVJGlDmMiIPVTmpQc3qJoFFbUOjMHWaVZcr58+x2Jmnt3vEl58/II1CekdHSlt/+MP3lO+ajCYsLrSp+S57z54STlosdeb4i3dv8P4Pb+D7rvJ/L89+Nq6Xj/2pr08tIFmd2RapmSaVYfLF5rtv3lwMThDGEgyfRQZBGiViJeRpSBZJhzVloeJyZqHFI9tQe2AtTVNgWb1SUymAYEmrS0v89U//kgdPt1lcXOS1Kxe4eHaJds1V13r5/n8O4cj1TiWg2c1Ec+S1CGqmOfJeBCXP8jdTc5VrSY6kSoeTeKF+ZCRDIBLJTabjgHCSIF0zS+q9XF7n+EIM1XUs9XM6Zfg3LYtq1eCnP/6Qt94OyvBecZRDlpyp/NEUMfEXYpLxzB6zcc3en/b5ewU0u8Fs4t8UitxUPpv9zW764nh5RDRJgJIyqiUk4ZQ0GjPqH9FqtMiTQLlWGYwISXYYFklIGqmeZxmMJak0DGqOjV/1VVkgCZUEa5XMnNROM5nMxj4b0zffz47/seeTfPuPnVYmTS9ritzw5fezK8yOy3txygIjlb+kUP5YgMKMkindo13IY1bPSDEpfirD1AuC6ZDH9+/SO95XWbotgL1hlnmKqgxKDKjse2nK0UvkFP6S2p55smCz8fz/Pn+vBn3z4n/yKkj5UQZ+1cGoujavX7nM4Y7wG3MWFtf5yUfvsdCRLUkZzWaNdnueZ5tPqNV9ls8squ2aooFKZVTSKhW/umj5kxkqRS3zlm+O98/x/k8S0J96Qyl15NcOSiHlVG2bd99+i4o/TxwkLJ1pcuXyMoYtVV7O+rl1/t1PLQ4PN1USevnyJYU+xkmmII6yFlPiUhJTJquSO/lJsVma96eO8vvP14r/V+/1/ddVzlrLNAV0iQAKXbYoGKSZe7LRpMB2DWwhQuQjLBzy1FUd2SQeYdpCyPKlhlW8HaErCigt4Ji0ipVKCcKg2gDSjytLoT8yrD/54/8LhGSQzYG3j+AAAAAASUVORK5CYII=;" vertex="1" parent="1">
          <mxGeometry x="770" y="288" width="62" height="62" as="geometry"/>
        </mxCell>
        <mxCell id="j9SPHKjD_w-5UFpXXz6L-29" value="" style="shape=flexArrow;endArrow=classic;html=1;fillColor=#d5e8d4;strokeColor=#82b366;" edge="1" parent="1">
          <mxGeometry width="50" height="50" relative="1" as="geometry">
            <mxPoint x="695" y="324.5" as="sourcePoint"/>
            <mxPoint x="770" y="325" as="targetPoint"/>
          </mxGeometry>
        </mxCell>
        <mxCell id="j9SPHKjD_w-5UFpXXz6L-34" value="" style="dashed=0;outlineConnect=0;html=1;align=center;labelPosition=center;verticalLabelPosition=bottom;verticalAlign=top;shape=mxgraph.weblogos.aws_s3;gradientColor=#ffa500;fillColor=#ffcd28;strokeColor=#d79b00;" vertex="1" parent="1">
          <mxGeometry x="519.4" y="292.4" width="61.6" height="57.6" as="geometry"/>
        </mxCell>
        <mxCell id="j9SPHKjD_w-5UFpXXz6L-38" value="迭代任务" style="text;html=1;strokeColor=none;fillColor=none;align=center;verticalAlign=middle;whiteSpace=wrap;rounded=0;" vertex="1" parent="1">
          <mxGeometry x="529" y="354" width="52" height="20" as="geometry"/>
        </mxCell>
      </root>
    </mxGraphModel>
  </diagram>
</mxfile>
